<svg xmlns="http://www.w3.org/2000/svg" xmlns:xlink="http://www.w3.org/1999/xlink" xmlns:lucid="lucid" width="832.32" height="1900"><g transform="translate(-550 180)" lucid:page-tab-id="0_0"><path d="M740 400h240v60H740z" fill="none"/><use xlink:href="#a" transform="matrix(1,0,0,1,740,400) translate(106.72222222222223 34)"/><path d="M700 280.96v24.5" stroke="#3a414a" fill="none"/><path d="M700.5 280.98h-1v-.52h1z" stroke="#3a414a" stroke-width=".05" fill="#3a414a"/><path d="M700 320.23l-4.64-14.27h9.28z" stroke="#3a414a" fill="#3a414a"/><path d="M695.6 324.07a6.5 6.5 0 0 1 8.8 0l121.2 111.86a5.54 5.54 0 0 1 0 8.14L704.4 555.93a6.5 6.5 0 0 1-8.8 0L574.4 444.07a5.54 5.54 0 0 1 0-8.14z" stroke="#3a414a" fill="#fff"/><use xlink:href="#b" transform="matrix(1,0,0,1,575,325) translate(101.33833333333334 86.02083333333333)"/><use xlink:href="#c" transform="matrix(1,0,0,1,575,325) translate(42.85685185185189 118.02083333333331)"/><use xlink:href="#d" transform="matrix(1,0,0,1,575,325) translate(164.19018518518516 118.02083333333331)"/><use xlink:href="#e" transform="matrix(1,0,0,1,575,325) translate(45.78277777777783 150.0208333333333)"/><use xlink:href="#f" transform="matrix(1,0,0,1,575,325) translate(112.44944444444445 150.0208333333333)"/><path d="M701 621.03h-2V609.5h2zm0-32.85h-2v-29.02h2z" stroke="#008a0e" stroke-width=".05" fill="#008a0e"/><path d="M700 558.16l1-.08v1.1h-2v-1.1z" fill="#008a0e"/><path d="M700 558.13l1.02-.08v1.16H699v-1.15zm-.98 1.03H701v-1.05l-.98.08-.98-.07z" stroke="#008a0e" stroke-width=".05" fill="#008a0e"/><path d="M700 636.3l-4.64-14.27h9.28z" fill="#008a0e"/><path d="M700 639.54l-6-18.5h12zm-3.26-16.5l3.26 10.02 3.26-10.03z" stroke="#008a0e" stroke-width=".05" fill="#008a0e"/><use xlink:href="#g" transform="matrix(1,0,0,1,684.6913580246913,588.1794361861058) translate(0 14.222222222222223)"/><path d="M941.3 380.3a10 10 0 0 1 8.83-5.3h106c8.83 0 16 26.86 16 60s-7.17 60-16 60h-106a10 10 0 0 1-8.83-5.3l-26.35-49.4a11.25 11.25 0 0 1 0-10.6z" stroke="#3a414a" fill="#fff"/><use xlink:href="#h" transform="matrix(1,0,0,1,917.1253136318237,380) translate(52.258086419753084 45.27777777777778)"/><use xlink:href="#i" transform="matrix(1,0,0,1,917.1253136318237,380) translate(11.048209876543206 71.94444444444446)"/><use xlink:href="#j" transform="matrix(1,0,0,1,917.1253136318237,380) translate(112.15932098765433 71.94444444444446)"/><path d="M992.13 496v44.12" stroke="#3a414a" fill="none"/><path d="M992.63 496h-1v-.5h1z" stroke="#3a414a" stroke-width=".05" fill="#3a414a"/><path d="M992.13 554.88l-4.64-14.26h9.26z" stroke="#3a414a" fill="#3a414a"/><path d="M649.18 5.3A10 10 0 0 1 658 0h84a10 10 0 0 1 8.82 5.3l26.36 49.4a11.25 11.25 0 0 1 0 10.6l-26.36 49.4A10 10 0 0 1 742 120h-84a10 10 0 0 1-8.82-5.3l-26.36-49.4a11.25 11.25 0 0 1 0-10.6z" stroke="#3a414a" fill="#fff"/><use xlink:href="#k" transform="matrix(1,0,0,1,625,5) translate(17.659320987654322 31.52777777777778)"/><use xlink:href="#l" transform="matrix(1,0,0,1,625,5) translate(53.40006172839506 31.52777777777778)"/><use xlink:href="#m" transform="matrix(1,0,0,1,625,5) translate(23.128456790123458 58.19444444444445)"/><use xlink:href="#n" transform="matrix(1,0,0,1,625,5) translate(66.33833333333334 58.19444444444445)"/><use xlink:href="#o" transform="matrix(1,0,0,1,625,5) translate(33.09141975308641 84.86111111111111)"/><path d="M700 120.97v22.18" stroke="#3a414a" fill="none"/><path d="M700.5 120.98h-1v-.5h1z" stroke="#3a414a" stroke-width=".05" fill="#3a414a"/><path d="M700 157.92l-4.64-14.27h9.28z" stroke="#3a414a" fill="#3a414a"/><path d="M748-160c17.67 0 32 17.9 32 40s-14.33 40-32 40h-96c-17.67 0-32-17.9-32-40s14.33-40 32-40z" stroke="#3a414a" fill="#fff"/><use xlink:href="#p" transform="matrix(1,0,0,1,625,-155) translate(46.635802469135804 39.65277777777778)"/><path d="M700-79v62.14" stroke="#3a414a" fill="none"/><path d="M700.5-79h-1v-.5h1z" stroke="#3a414a" stroke-width=".05" fill="#3a414a"/><path d="M700-2.1l-4.64-14.26h9.28z" stroke="#3a414a" fill="#3a414a"/><path d="M620 166a6 6 0 0 1 6-6h148a6 6 0 0 1 6 6v108a6 6 0 0 1-6 6H626a6 6 0 0 1-6-6zm16-6v120m-16-104h160" stroke="#3a414a" fill="#fff"/><use xlink:href="#q" transform="matrix(1,0,0,1,641,181) translate(16.382716049382722 38.34027777777778)"/><use xlink:href="#r" transform="matrix(1,0,0,1,641,181) translate(53.41975308641976 38.34027777777778)"/><use xlink:href="#s" transform="matrix(1,0,0,1,641,181) translate(102.80246913580247 38.34027777777778)"/><use xlink:href="#t" transform="matrix(1,0,0,1,641,181) translate(37.370370370370374 65.00694444444446)"/><path d="M987.33 558.6a8 8 0 0 1 9.6 0l70.4 52.8a4.5 4.5 0 0 1 0 7.2l-70.4 52.8a8 8 0 0 1-9.6 0l-70.4-52.8a4.5 4.5 0 0 1 0-7.2z" stroke="#3a414a" fill="#fff"/><use xlink:href="#u" transform="matrix(1,0,0,1,917.1253136318237,560) translate(45.03277777777779 34.01)"/><use xlink:href="#v" transform="matrix(1,0,0,1,917.1253136318237,560) translate(32.33833333333334 58.01)"/><use xlink:href="#w" transform="matrix(1,0,0,1,917.1253136318237,560) translate(103.28277777777777 58.01)"/><use xlink:href="#x" transform="matrix(1,0,0,1,917.1253136318237,560) translate(52.255 82.00999999999999)"/><path d="M993.13 718h-2v-2.33h2zm0-23.67h-2V674.5h2z" stroke="#008a0e" stroke-width=".05" fill="#008a0e"/><path d="M992.13 673.5l1-.06v1.1h-2v-1.1z" fill="#008a0e"/><path d="M992.13 673.48l1.02-.07v1.15h-2.05v-1.14zm-.98 1.02h1.95v-1.04l-.97.07-.98-.07z" stroke="#008a0e" stroke-width=".05" fill="#008a0e"/><path d="M992.13 733.26L987.5 719h9.26z" fill="#008a0e"/><path d="M992.13 736.5L986.1 718h12.04zm-3.26-16.5l3.26 10.03 3.25-10.03z" stroke="#008a0e" stroke-width=".05" fill="#008a0e"/><use xlink:href="#g" transform="matrix(1,0,0,1,976.816671656515,694.3333333333334) translate(0 14.222222222222223)"/><path d="M1100.32 616h-29.7v-2h29.7zm35.8 0h-12.2v-2h12.2z" stroke="#e81313" stroke-width=".05" fill="#e81313"/><path d="M1070.65 616h-1.13l.1-1-.08-.92 1.1-.08z" fill="#e81313"/><path d="M1070.68 616.02h-1.2l.12-1.02-.1-.95 1.18-.08zm-1.1-1.92l.07.9-.1.98h1.08v-1.95z" stroke="#e81313" stroke-width=".05" fill="#e81313"/><path d="M1151.4 615l-14.28 4.64v-9.28z" fill="#e81313"/><path d="M1154.62 615l-18.5 6v-12zm-16.5 3.26l10.03-3.26-10.03-3.26z" stroke="#e81313" stroke-width=".05" fill="#e81313"/><use xlink:href="#y" transform="matrix(1,0,0,1,1100.3228444960212,604.3333333333334) translate(0 14.222222222222223)"/><path d="M987.33 738.6a8 8 0 0 1 9.6 0l70.4 52.8a4.5 4.5 0 0 1 0 7.2l-70.4 52.8a8 8 0 0 1-9.6 0l-70.4-52.8a4.5 4.5 0 0 1 0-7.2z" stroke="#3a414a" fill="#fff"/><use xlink:href="#z" transform="matrix(1,0,0,1,917.1253136318237,740) translate(2.283950617283949 46.111111111111114)"/><use xlink:href="#A" transform="matrix(1,0,0,1,917.1253136318237,740) translate(75.06172839506172 46.111111111111114)"/><use xlink:href="#B" transform="matrix(1,0,0,1,917.1253136318237,740) translate(44.135802469135804 72.77777777777777)"/><path d="M993.13 942.8h-2v-63.33h2zm0-84.66h-2v-3.64h2z" stroke="#008a0e" stroke-width=".05" fill="#008a0e"/><path d="M992.13 853.5l1-.06v1.1h-2v-1.1z" fill="#008a0e"/><path d="M992.13 853.48l1.02-.07v1.15h-2.05v-1.14zm-.98 1.02h1.95v-1.04l-.97.07-.98-.07z" stroke="#008a0e" stroke-width=".05" fill="#008a0e"/><path d="M992.13 958.08l-4.64-14.27h9.26z" fill="#008a0e"/><path d="M992.13 961.32l-6.02-18.5h12.04zm-3.26-16.5l3.26 10.02 3.25-10.03z" stroke="#008a0e" stroke-width=".05" fill="#008a0e"/><use xlink:href="#g" transform="matrix(1,0,0,1,976.816671656515,858.1397702927562) translate(0 14.222222222222223)"/><path d="M748 1620c17.67 0 32 17.9 32 40s-14.33 40-32 40h-96c-17.67 0-32-17.9-32-40s14.33-40 32-40z" stroke="#3a414a" fill="#fff"/><use xlink:href="#C" transform="matrix(1,0,0,1,625,1625) translate(55.24691358024691 39.65277777777778)"/><path d="M987.13 963.33a9 9 0 0 1 10 0l80 53.34a4 4 0 0 1 0 6.66l-80 53.34a9 9 0 0 1-10 0l-80-53.34a4 4 0 0 1 0-6.66z" stroke="#3a414a" fill="#fff"/><use xlink:href="#D" transform="matrix(1,0,0,1,907.1253136318237,965) translate(51.702530864197534 35.78777777777778)"/><use xlink:href="#E" transform="matrix(1,0,0,1,907.1253136318237,965) translate(27.721049382716057 62.45444444444445)"/><use xlink:href="#F" transform="matrix(1,0,0,1,907.1253136318237,965) translate(106.54820987654321 62.45444444444445)"/><path d="M993.13 1654.04l-.1 1.06-.24 1.06-.43 1.02-.58.94-.72.83-.84.72-.94.57-1 .42-1.12.27L799 1661v-2l187.95-.07.72-.18.72-.3.66-.4.6-.52.5-.6.42-.66.3-.73.18-.76.07-.82v-454.6h2zm0-476h-2v-98.36h2z" stroke="#008a0e" stroke-width=".05" fill="#008a0e"/><path d="M992.13 1078.68l1-.05v1.08h-2v-1.07z" fill="#008a0e"/><path d="M992.13 1078.66l1.02-.06v1.13h-2.05v-1.13zm-.98 1.02h1.95v-1.03l-.97.06-.98-.05z" stroke="#008a0e" stroke-width=".05" fill="#008a0e"/><path d="M798 1664.64l-14.26-4.64 14.26-4.64z" fill="#008a0e"/><path d="M799 1666l-18.5-6 18.5-6zm-12.03-6l10.03 3.26v-6.52z" stroke="#008a0e" stroke-width=".05" fill="#008a0e"/><use xlink:href="#g" transform="matrix(1,0,0,1,976.816671656515,1178.0334802440113) translate(0 14.222222222222223)"/><path d="M620 646a6 6 0 0 1 6-6h148a6 6 0 0 1 6 6v118.67a6 6 0 0 1-6 6H626a6 6 0 0 1-6-6z" stroke="#3a414a" fill="#fff"/><use xlink:href="#G" transform="matrix(1,0,0,1,632,652) translate(39.66666666666667 17.77777777777778)"/><use xlink:href="#H" transform="matrix(1,0,0,1,632,652) translate(30.407407407407405 44.44444444444444)"/><use xlink:href="#I" transform="matrix(1,0,0,1,632,652) translate(37.135802469135804 71.11111111111111)"/><use xlink:href="#J" transform="matrix(1,0,0,1,632,652) translate(25.5 97.77777777777777)"/><path d="M1227.33 558.6a8 8 0 0 1 9.6 0l70.4 52.8a4.5 4.5 0 0 1 0 7.2l-70.4 52.8a8 8 0 0 1-9.6 0l-70.4-52.8a4.5 4.5 0 0 1 0-7.2z" stroke="#3a414a" fill="#fff"/><use xlink:href="#K" transform="matrix(1,0,0,1,1157.1253136318237,560) translate(15.771604938271608 46.111111111111114)"/><use xlink:href="#L" transform="matrix(1,0,0,1,1157.1253136318237,560) translate(39.22839506172839 46.111111111111114)"/><use xlink:href="#M" transform="matrix(1,0,0,1,1157.1253136318237,560) translate(79.96913580246914 46.111111111111114)"/><use xlink:href="#N" transform="matrix(1,0,0,1,1157.1253136318237,560) translate(35.52469135802468 72.77777777777777)"/><path d="M896.12 441.75l-28.8.07-.74.17-.72.3-.67.4-.6.5-.52.6-.4.68-.3.72-.2.76-.05.82.07 343.04.17.72.3.73.4.67.52.6.6.5.66.4.72.3.76.2.82.06H883v2h-14.9l-1.07-.08-1.07-.26-1-.42-.95-.57-.83-.72-.7-.83-.58-.94-.44-1.02-.26-1.1-.07-343.35.08-1.05.26-1.07.43-1 .56-.95.7-.84.85-.72.95-.57 1-.4 1.12-.28 29.05-.07zM913.62 794v2h-7.03v-2z" stroke="#e81313" stroke-width=".05" fill="#e81313"/><path d="M914.7 794.08l-.08.92.1.92-1.12.08v-2h1.13z" fill="#e81313"/><path d="M914.73 794.08l-.08.92.1.95-1.18.08v-2.05h1.2zm-1.1-.06v1.95l1.05-.07-.08-.9.08-.93.02-.05z" stroke="#e81313" stroke-width=".05" fill="#e81313"/><path d="M911.4 440.75l-14.28 4.63v-9.27z" fill="#e81313"/><path d="M914.62 440.75l-18.5 6v-12.02zm-16.5 3.25l10.03-3.25-10.03-3.26z" stroke="#e81313" stroke-width=".05" fill="#e81313"/><use xlink:href="#y" transform="matrix(1,0,0,1,882.989511162688,784.3333333333334) translate(0 14.222222222222223)"/><path d="M1233.13 718h-2v-2.33h2zm0-23.67h-2V674.5h2z" stroke="#008a0e" stroke-width=".05" fill="#008a0e"/><path d="M1232.13 673.5l1-.06v1.1h-2v-1.1z" fill="#008a0e"/><path d="M1232.13 673.48l1.02-.07v1.15h-2.05v-1.14zm-.98 1.02h1.95v-1.04l-.97.07-.98-.07z" stroke="#008a0e" stroke-width=".05" fill="#008a0e"/><path d="M1232.13 733.26L1227.5 719h9.26z" fill="#008a0e"/><path d="M1232.13 736.5l-6.02-18.5h12.04zm-3.26-16.5l3.26 10.03 3.25-10.03z" stroke="#008a0e" stroke-width=".05" fill="#008a0e"/><use xlink:href="#g" transform="matrix(1,0,0,1,1216.8166716565152,694.3333333333334) translate(0 14.222222222222223)"/><path d="M1227.33 738.6a8 8 0 0 1 9.6 0l70.4 52.8a4.5 4.5 0 0 1 0 7.2l-70.4 52.8a8 8 0 0 1-9.6 0l-70.4-52.8a4.5 4.5 0 0 1 0-7.2z" stroke="#3a414a" fill="#fff"/><use xlink:href="#K" transform="matrix(1,0,0,1,1157.1253136318237,740) translate(45.992654320987654 45.27777777777778)"/><use xlink:href="#O" transform="matrix(1,0,0,1,1157.1253136318237,740) translate(69.44944444444445 45.27777777777778)"/><use xlink:href="#P" transform="matrix(1,0,0,1,1157.1253136318237,740) translate(39.20253086419753 71.94444444444446)"/><path d="M815.54 736.4l1.1.27 1.02.42.94.56.84.72.7.83.58.95.42 1.02.26 1.07.08 1.05.08 145.02.17.73.3.72.4.67.52.6.6.5.66.4.74.3.76.2.82.06 400.43-.07.72-.18.72-.3.66-.4.6-.52.5-.6.42-.66.3-.72.18-.77.07-.82v-8h2v8.08l-.1 1.06-.24 1.07-.43 1-.58.95-.72.83-.84.72-.94.57-1 .42-1.12.27-400.74.07-1.05-.08-1.08-.26-1.02-.42-.93-.57-.84-.72-.7-.83-.6-.94-.4-1-.27-1.12-.08-145.2-.06-.8-.18-.77-.3-.74-.4-.67-.52-.6-.6-.5-.67-.42-.72-.3-.73-.18-16.32-.07v-2zm417.6 121.74h-2v-3.64h2z" stroke="#008a0e" stroke-width=".05" fill="#008a0e"/><path d="M1232.13 853.5l1-.06v1.1h-2v-1.1z" fill="#008a0e"/><path d="M1232.13 853.48l1.02-.07v1.15h-2.05v-1.14zm-.98 1.02h1.95v-1.04l-.97.07-.98-.07z" stroke="#008a0e" stroke-width=".05" fill="#008a0e"/><path d="M798 741.97l-14.28-4.64L798 732.7z" fill="#008a0e"/><path d="M799 743.34l-18.52-6 18.5-6.02zm-12.04-6l10.03 3.25v-6.53z" stroke="#008a0e" stroke-width=".05" fill="#008a0e"/><use xlink:href="#g" transform="matrix(1,0,0,1,1216.8166716565152,858.1397702927562) translate(0 14.222222222222223)"/><path d="M1108.66 1021h-28.24v-2h28.24zm34.35 0h-10.73v-2H1143z" stroke="#e81313" stroke-width=".05" fill="#e81313"/><path d="M1080.44 1021h-1.15l.03-.12.1-.88-.1-.88-.04-.12h1.14z" fill="#e81313"/><path d="M1080.47 1021.02h-1.2l.04-.15.1-.87-.1-.87-.04-.15h1.2zm-1.14-2l.02.1.1.88-.1.88-.02.1h1.1V1019z" stroke="#e81313" stroke-width=".05" fill="#e81313"/><path d="M1158.28 1020l-14.27 4.64v-9.28z" fill="#e81313"/><path d="M1161.5 1020l-18.5 6v-12zm-16.5 3.26l10.04-3.26-10.03-3.26z" stroke="#e81313" stroke-width=".05" fill="#e81313"/><use xlink:href="#y" transform="matrix(1,0,0,1,1108.663063113311,1009.3333333333334) translate(0 14.222222222222223)"/><path d="M1234.22 963.6a8 8 0 0 1 9.6 0l70.4 52.8a4.5 4.5 0 0 1 0 7.2l-70.4 52.8a8 8 0 0 1-9.6 0l-70.4-52.8a4.5 4.5 0 0 1 0-7.2z" stroke="#3a414a" fill="#fff"/><use xlink:href="#Q" transform="matrix(1,0,0,1,1164.0165914091658,965) translate(41.702530864197534 37.78777777777778)"/><use xlink:href="#R" transform="matrix(1,0,0,1,1164.0165914091658,965) translate(36.239567901234565 64.45444444444445)"/><use xlink:href="#S" transform="matrix(1,0,0,1,1164.0165914091658,965) translate(57.72104938271605 91.1211111111111)"/><path d="M1188.2 1215.3a10 10 0 0 1 8.82-5.3h106c8.83 0 16 26.86 16 60s-7.17 60-16 60h-106a10 10 0 0 1-8.83-5.3l-26.36-49.4a11.25 11.25 0 0 1 0-10.6z" stroke="#3a414a" fill="#fff"/><g><use xlink:href="#T" transform="matrix(1,0,0,1,1164.0165914091658,1215) translate(55.930925925925926 45.27777777777778)"/><use xlink:href="#U" transform="matrix(1,0,0,1,1164.0165914091658,1215) translate(32.035864197530856 71.94444444444446)"/></g><path d="M1240.02 1191.03h-2v-36.35h2zm0-57.68h-2v-53.85h2z" stroke="#008a0e" stroke-width=".05" fill="#008a0e"/><path d="M1239.02 1078.5l1-.06v1.1h-2v-1.1z" fill="#008a0e"/><path d="M1239.02 1078.48l1.02-.07v1.15H1238v-1.14zm-.98 1.02h1.95v-1.04l-.98.07-.98-.07z" stroke="#008a0e" stroke-width=".05" fill="#008a0e"/><path d="M1239.02 1206.3l-4.64-14.27h9.27z" fill="#008a0e"/><path d="M1239.02 1209.53l-6.02-18.5h12.03zm-3.26-16.5l3.26 10.03 3.26-10.03z" stroke="#008a0e" stroke-width=".05" fill="#008a0e"/><g><use xlink:href="#g" transform="matrix(1,0,0,1,1223.7079494338573,1133.3512935061287) translate(0 14.222222222222223)"/></g><path d="M1239.43 1331v39.8a.2.2 0 0 1-.2.2.2.2 0 0 0-.2.2v23.92" stroke="#3a414a" fill="none"/><path d="M1239.93 1331h-1v-.5h1z" stroke="#3a414a" stroke-width=".05" fill="#3a414a"/><path d="M1239.02 1409.88l-4.64-14.26h9.27z" stroke="#3a414a" fill="#3a414a"/><path d="M1234.22 1413.6a8 8 0 0 1 9.6 0l70.4 52.8a4.5 4.5 0 0 1 0 7.2l-70.4 52.8a8 8 0 0 1-9.6 0l-70.4-52.8a4.5 4.5 0 0 1 0-7.2z" stroke="#3a414a" fill="#fff"/><g><use xlink:href="#V" transform="matrix(1,0,0,1,1164.0165914091658,1415) translate(20.159320987654322 53.78777777777778)"/><use xlink:href="#W" transform="matrix(1,0,0,1,1164.0165914091658,1415) translate(44.1408024691358 80.45444444444445)"/></g><path d="M815.54 736.4l1.1.27 1.02.42.94.56.84.72.7.83.58.95.42 1.02.26 1.07.08 1.05.08 820.02.17.73.3.72.4.67.52.6.6.5.66.4.74.3.76.2.82.06 338.22-.06v2l-338.3.06-1.05-.08-1.08-.26-1.02-.42-.93-.57-.84-.72-.7-.83-.6-.94-.4-1-.27-1.12-.08-820.2-.06-.8-.18-.77-.3-.74-.4-.67-.52-.6-.6-.5-.67-.42-.72-.3-.73-.18-16.32-.07v-2zm424.48 826.14l-.1 1.06-.24 1.07-.42 1-.58.95-.7.83-.85.72-.93.57-1.02.42-1.1.27h-38.72v-2h38.48l.72-.18.73-.3.65-.4.6-.52.5-.6.42-.66.3-.72.18-.77.07-.82v-32.96h2z" stroke="#008a0e" stroke-width=".05" fill="#008a0e"/><path d="M1239.02 1528.5l1-.06v1.1h-2v-1.1z" fill="#008a0e"/><path d="M1239.02 1528.48l1.02-.07v1.15H1238v-1.14zm-.98 1.02h1.95v-1.04l-.98.07-.98-.07z" stroke="#008a0e" stroke-width=".05" fill="#008a0e"/><path d="M798 741.97l-14.28-4.64L798 732.7z" fill="#008a0e"/><path d="M799 743.34l-18.52-6 18.5-6.02zm-12.04-6l10.03 3.25v-6.53z" stroke="#008a0e" stroke-width=".05" fill="#008a0e"/><g><use xlink:href="#g" transform="matrix(1,0,0,1,1164.7438612720634,1557.8343497918665) translate(0 14.222222222222223)"/></g><path d="M1360.44 1465.06l-.26 1.1-.42 1.02-.58.94-.7.83-.85.72-.93.57-1.02.42-1.07.26-1.04.08h-36.04v-2h35.96l.82-.06.76-.2.73-.3.65-.4.6-.5.5-.6.42-.67.3-.73.17-.72.04-82.65h2zm-5.86-196l1.1.28 1.02.42.93.57.84.72.7.83.6.94.4 1.02.26 1.06.1 1.06-.05 84.87h-2l.04-84.8-.07-.8-.18-.77-.3-.73-.4-.67-.52-.6-.6-.5-.66-.4-.74-.3-.73-.2-16.32-.06.02-2z" stroke="#e81313" stroke-width=".05" fill="#e81313"/><path d="M1317.54 1471h-1.13l.12-1-.1-.92 1.12-.08z" fill="#e81313"/><path d="M1317.57 1471.03h-1.2l.12-1.03-.1-.95 1.17-.08zm-1.1-1.93l.07.9-.1.97h1.08v-1.94z" stroke="#e81313" stroke-width=".05" fill="#e81313"/><path d="M1337.02 1274.64l-14.27-4.64 14.27-4.64z" fill="#e81313"/><path d="M1338.02 1276l-18.5-6 18.5-6zm-12.03-6l10.02 3.26v-6.52z" stroke="#e81313" stroke-width=".05" fill="#e81313"/><g><use xlink:href="#y" transform="matrix(1,0,0,1,1347.7144224108058,1360.8324259125513) translate(0 14.222222222222223)"/></g><path d="M828.37 440h69.5" stroke="#3a414a" fill="none"/><path d="M828.4 440.5h-.57l.04-.5-.04-.5h.56z" stroke="#3a414a" stroke-width=".05" fill="#3a414a"/><path d="M912.64 440l-14.27 4.64v-9.28z" stroke="#3a414a" fill="#3a414a"/><defs><path fill="#3a414a" d="M175 0L67-191c6 58 2 128 3 191H24v-248h59L193-55c-6-58-2-129-3-193h46V0h-61" id="X"/><path fill="#3a414a" d="M110-194c64 0 96 36 96 99 0 64-35 99-97 99-61 0-95-36-95-99 0-62 34-99 96-99zm-1 164c35 0 45-28 45-65 0-40-10-65-43-65-34 0-45 26-45 65 0 36 10 65 43 65" id="Y"/><g id="a"><use transform="matrix(0.05555555555555554,0,0,0.05555555555555554,0,0)" xlink:href="#X"/><use transform="matrix(0.05555555555555554,0,0,0.05555555555555554,14.388888888888884,0)" xlink:href="#Y"/></g><path fill="#3a414a" d="M197 0v-115H63V0H30v-248h33v105h134v-105h34V0h-34" id="Z"/><path fill="#3a414a" d="M141-36C126-15 110 5 73 4 37 3 15-17 15-53c-1-64 63-63 125-63 3-35-9-54-41-54-24 1-41 7-42 31l-33-3c5-37 33-52 76-52 45 0 72 20 72 64v82c-1 20 7 32 28 27v20c-31 9-61-2-59-35zM48-53c0 20 12 33 32 33 41-3 63-29 60-74-43 2-92-5-92 41" id="aa"/><path fill="#3a414a" d="M135-143c-3-34-86-38-87 0 15 53 115 12 119 90S17 21 10-45l28-5c4 36 97 45 98 0-10-56-113-15-118-90-4-57 82-63 122-42 12 7 21 19 24 35" id="ab"/><g id="b"><use transform="matrix(0.07407407407407404,0,0,0.07407407407407404,0,0)" xlink:href="#Z"/><use transform="matrix(0.07407407407407404,0,0,0.07407407407407404,19.185185185185176,0)" xlink:href="#aa"/><use transform="matrix(0.07407407407407404,0,0,0.07407407407407404,33.999999999999986,0)" xlink:href="#ab"/></g><path fill="#3a414a" d="M85-194c31 0 48 13 60 33l-1-100h32l1 261h-30c-2-10 0-23-3-31C134-8 116 4 85 4 32 4 16-35 15-94c0-66 23-100 70-100zm9 24c-40 0-46 34-46 75 0 40 6 74 45 74 42 0 51-32 51-76 0-42-9-74-50-73" id="ac"/><path fill="#3a414a" d="M100-194c62-1 85 37 85 99 1 63-27 99-86 99S16-35 15-95c0-66 28-99 85-99zM99-20c44 1 53-31 53-75 0-43-8-75-51-75s-53 32-53 75 10 74 51 75" id="ad"/><path fill="#3a414a" d="M206 0h-36l-40-164L89 0H53L-1-190h32L70-26l43-164h34l41 164 42-164h31" id="ae"/><path fill="#3a414a" d="M117-194c89-4 53 116 60 194h-32v-121c0-31-8-49-39-48C34-167 62-67 57 0H25l-1-190h30c1 10-1 24 2 32 11-22 29-35 61-36" id="af"/><path fill="#3a414a" d="M24 0v-261h32V0H24" id="ag"/><g id="c"><use transform="matrix(0.07407407407407404,0,0,0.07407407407407404,0,0)" xlink:href="#ac"/><use transform="matrix(0.07407407407407404,0,0,0.07407407407407404,14.814814814814808,0)" xlink:href="#ad"/><use transform="matrix(0.07407407407407404,0,0,0.07407407407407404,29.629629629629616,0)" xlink:href="#ae"/><use transform="matrix(0.07407407407407404,0,0,0.07407407407407404,48.814814814814795,0)" xlink:href="#af"/><use transform="matrix(0.07407407407407404,0,0,0.07407407407407404,63.629629629629605,0)" xlink:href="#ag"/><use transform="matrix(0.07407407407407404,0,0,0.07407407407407404,69.48148148148145,0)" xlink:href="#ad"/><use transform="matrix(0.07407407407407404,0,0,0.07407407407407404,84.29629629629626,0)" xlink:href="#aa"/><use transform="matrix(0.07407407407407404,0,0,0.07407407407407404,99.11111111111107,0)" xlink:href="#ac"/></g><path fill="#3a414a" d="M115-194c53 0 69 39 70 98 0 66-23 100-70 100C84 3 66-7 56-30L54 0H23l1-261h32v101c10-23 28-34 59-34zm-8 174c40 0 45-34 45-75 0-40-5-75-45-74-42 0-51 32-51 76 0 43 10 73 51 73" id="ah"/><path fill="#3a414a" d="M141 0L90-78 38 0H4l68-98-65-92h35l48 74 47-74h35l-64 92 68 98h-35" id="ai"/><g id="d"><use transform="matrix(0.07407407407407404,0,0,0.07407407407407404,0,0)" xlink:href="#ah"/><use transform="matrix(0.07407407407407404,0,0,0.07407407407407404,14.814814814814808,0)" xlink:href="#ad"/><use transform="matrix(0.07407407407407404,0,0,0.07407407407407404,29.629629629629616,0)" xlink:href="#ai"/></g><path fill="#3a414a" d="M100-194c63 0 86 42 84 106H49c0 40 14 67 53 68 26 1 43-12 49-29l28 8c-11 28-37 45-77 45C44 4 14-33 15-96c1-61 26-98 85-98zm52 81c6-60-76-77-97-28-3 7-6 17-6 28h103" id="aj"/><g id="e"><use transform="matrix(0.07407407407407404,0,0,0.07407407407407404,0,0)" xlink:href="#ah"/><use transform="matrix(0.07407407407407404,0,0,0.07407407407407404,14.814814814814808,0)" xlink:href="#aj"/><use transform="matrix(0.07407407407407404,0,0,0.07407407407407404,29.629629629629616,0)" xlink:href="#aj"/><use transform="matrix(0.07407407407407404,0,0,0.07407407407407404,44.44444444444443,0)" xlink:href="#af"/></g><path fill="#3a414a" d="M106-169C34-169 62-67 57 0H25v-261h32l-1 103c12-21 28-36 61-36 89 0 53 116 60 194h-32v-121c2-32-8-49-39-48" id="ak"/><path fill="#3a414a" d="M103-251c84 0 111 97 45 133-19 10-37 24-39 52H78c0-63 77-55 77-114 0-30-21-42-52-43-32 0-53 17-56 46l-32-2c7-45 34-72 88-72zM77 0v-35h34V0H77" id="al"/><g id="f"><use transform="matrix(0.07407407407407404,0,0,0.07407407407407404,0,0)" xlink:href="#ab"/><use transform="matrix(0.07407407407407404,0,0,0.07407407407407404,13.333333333333327,0)" xlink:href="#ak"/><use transform="matrix(0.07407407407407404,0,0,0.07407407407407404,28.148148148148135,0)" xlink:href="#ad"/><use transform="matrix(0.07407407407407404,0,0,0.07407407407407404,42.96296296296295,0)" xlink:href="#ae"/><use transform="matrix(0.07407407407407404,0,0,0.07407407407407404,62.14814814814811,0)" xlink:href="#af"/><use transform="matrix(0.07407407407407404,0,0,0.07407407407407404,76.96296296296292,0)" xlink:href="#al"/></g><path fill="#333" d="M146-102V0H94v-102L6-248h54l60 105 60-105h54" id="am"/><path fill="#333" d="M185-48c-13 30-37 53-82 52C43 2 14-33 14-96s30-98 90-98c62 0 83 45 84 108H66c0 31 8 55 39 56 18 0 30-7 34-22zm-45-69c5-46-57-63-70-21-2 6-4 13-4 21h74" id="an"/><path fill="#333" d="M137-138c1-29-70-34-71-4 15 46 118 7 119 86 1 83-164 76-172 9l43-7c4 19 20 25 44 25 33 8 57-30 24-41C81-84 22-81 20-136c-2-80 154-74 161-7" id="ao"/><g id="g"><use transform="matrix(0.04938271604938272,0,0,0.04938271604938272,0,0)" xlink:href="#am"/><use transform="matrix(0.04938271604938272,0,0,0.04938271604938272,10.864197530864198,0)" xlink:href="#an"/><use transform="matrix(0.04938271604938272,0,0,0.04938271604938272,20.74074074074074,0)" xlink:href="#ao"/></g><path fill="#3a414a" d="M185-189c-5-48-123-54-124 2 14 75 158 14 163 119 3 78-121 87-175 55-17-10-28-26-33-46l33-7c5 56 141 63 141-1 0-78-155-14-162-118-5-82 145-84 179-34 5 7 8 16 11 25" id="ap"/><g id="h"><use transform="matrix(0.06172839506172839,0,0,0.06172839506172839,0,0)" xlink:href="#ap"/><use transform="matrix(0.06172839506172839,0,0,0.06172839506172839,14.814814814814813,0)" xlink:href="#ak"/><use transform="matrix(0.06172839506172839,0,0,0.06172839506172839,27.160493827160494,0)" xlink:href="#ad"/><use transform="matrix(0.06172839506172839,0,0,0.06172839506172839,39.50617283950617,0)" xlink:href="#ae"/></g><g id="i"><use transform="matrix(0.06172839506172839,0,0,0.06172839506172839,0,0)" xlink:href="#ac"/><use transform="matrix(0.06172839506172839,0,0,0.06172839506172839,12.345679012345679,0)" xlink:href="#ad"/><use transform="matrix(0.06172839506172839,0,0,0.06172839506172839,24.691358024691358,0)" xlink:href="#ae"/><use transform="matrix(0.06172839506172839,0,0,0.06172839506172839,40.67901234567901,0)" xlink:href="#af"/><use transform="matrix(0.06172839506172839,0,0,0.06172839506172839,53.02469135802469,0)" xlink:href="#ag"/><use transform="matrix(0.06172839506172839,0,0,0.06172839506172839,57.901234567901234,0)" xlink:href="#ad"/><use transform="matrix(0.06172839506172839,0,0,0.06172839506172839,70.24691358024691,0)" xlink:href="#aa"/><use transform="matrix(0.06172839506172839,0,0,0.06172839506172839,82.5925925925926,0)" xlink:href="#ac"/></g><g id="j"><use transform="matrix(0.06172839506172839,0,0,0.06172839506172839,0,0)" xlink:href="#ah"/><use transform="matrix(0.06172839506172839,0,0,0.06172839506172839,12.345679012345679,0)" xlink:href="#ad"/><use transform="matrix(0.06172839506172839,0,0,0.06172839506172839,24.691358024691358,0)" xlink:href="#ai"/></g><path fill="#3a414a" d="M33 0v-248h34V0H33" id="aq"/><path fill="#3a414a" d="M24-231v-30h32v30H24zM24 0v-190h32V0H24" id="ar"/><path fill="#3a414a" d="M59-47c-2 24 18 29 38 22v24C64 9 27 4 27-40v-127H5v-23h24l9-43h21v43h35v23H59v120" id="as"/><g id="k"><use transform="matrix(0.06172839506172839,0,0,0.06172839506172839,0,0)" xlink:href="#aq"/><use transform="matrix(0.06172839506172839,0,0,0.06172839506172839,6.172839506172839,0)" xlink:href="#af"/><use transform="matrix(0.06172839506172839,0,0,0.06172839506172839,18.51851851851852,0)" xlink:href="#ar"/><use transform="matrix(0.06172839506172839,0,0,0.06172839506172839,23.395061728395063,0)" xlink:href="#as"/></g><path fill="#3a414a" d="M115-194c55 1 70 41 70 98S169 2 115 4C84 4 66-9 55-30l1 105H24l-1-265h31l2 30c10-21 28-34 59-34zm-8 174c40 0 45-34 45-75s-6-73-45-74c-42 0-51 32-51 76 0 43 10 73 51 73" id="at"/><path fill="#3a414a" d="M179-190L93 31C79 59 56 82 12 73V49c39 6 53-20 64-50L1-190h34L92-34l54-156h33" id="au"/><path fill="#3a414a" d="M177-190C167-65 218 103 67 71c-23-6-38-20-44-43l32-5c15 47 100 32 89-28v-30C133-14 115 1 83 1 29 1 15-40 15-95c0-56 16-97 71-98 29-1 48 16 59 35 1-10 0-23 2-32h30zM94-22c36 0 50-32 50-73 0-42-14-75-50-75-39 0-46 34-46 75s6 73 46 73" id="av"/><path fill="#3a414a" d="M210-169c-67 3-38 105-44 169h-31v-121c0-29-5-50-35-48C34-165 62-65 56 0H25l-1-190h30c1 10-1 24 2 32 10-44 99-50 107 0 11-21 27-35 58-36 85-2 47 119 55 194h-31v-121c0-29-5-49-35-48" id="aw"/><g id="l"><use transform="matrix(0.06172839506172839,0,0,0.06172839506172839,0,0)" xlink:href="#at"/><use transform="matrix(0.06172839506172839,0,0,0.06172839506172839,12.345679012345679,0)" xlink:href="#au"/><use transform="matrix(0.06172839506172839,0,0,0.06172839506172839,23.45679012345679,0)" xlink:href="#av"/><use transform="matrix(0.06172839506172839,0,0,0.06172839506172839,35.80246913580247,0)" xlink:href="#aa"/><use transform="matrix(0.06172839506172839,0,0,0.06172839506172839,48.148148148148145,0)" xlink:href="#aw"/><use transform="matrix(0.06172839506172839,0,0,0.06172839506172839,66.60493827160494,0)" xlink:href="#aj"/></g><g id="m"><use transform="matrix(0.06172839506172839,0,0,0.06172839506172839,0,0)" xlink:href="#aa"/><use transform="matrix(0.06172839506172839,0,0,0.06172839506172839,12.345679012345679,0)" xlink:href="#af"/><use transform="matrix(0.06172839506172839,0,0,0.06172839506172839,24.691358024691358,0)" xlink:href="#ac"/></g><path fill="#3a414a" d="M114-163C36-179 61-72 57 0H25l-1-190h30c1 12-1 29 2 39 6-27 23-49 58-41v29" id="ax"/><g id="n"><use transform="matrix(0.06172839506172839,0,0,0.06172839506172839,0,0)" xlink:href="#ar"/><use transform="matrix(0.06172839506172839,0,0,0.06172839506172839,4.876543209876543,0)" xlink:href="#aw"/><use transform="matrix(0.06172839506172839,0,0,0.06172839506172839,23.33333333333333,0)" xlink:href="#at"/><use transform="matrix(0.06172839506172839,0,0,0.06172839506172839,35.679012345679006,0)" xlink:href="#ad"/><use transform="matrix(0.06172839506172839,0,0,0.06172839506172839,48.02469135802468,0)" xlink:href="#ax"/><use transform="matrix(0.06172839506172839,0,0,0.06172839506172839,55.37037037037036,0)" xlink:href="#as"/></g><path fill="#3a414a" d="M84 4C-5 8 30-112 23-190h32v120c0 31 7 50 39 49 72-2 45-101 50-169h31l1 190h-30c-1-10 1-25-2-33-11 22-28 36-60 37" id="ay"/><g id="o"><use transform="matrix(0.06172839506172839,0,0,0.06172839506172839,0,0)" xlink:href="#aw"/><use transform="matrix(0.06172839506172839,0,0,0.06172839506172839,18.456790123456788,0)" xlink:href="#ad"/><use transform="matrix(0.06172839506172839,0,0,0.06172839506172839,30.80246913580247,0)" xlink:href="#ac"/><use transform="matrix(0.06172839506172839,0,0,0.06172839506172839,43.148148148148145,0)" xlink:href="#ay"/><use transform="matrix(0.06172839506172839,0,0,0.06172839506172839,55.49382716049382,0)" xlink:href="#ag"/><use transform="matrix(0.06172839506172839,0,0,0.06172839506172839,60.37037037037037,0)" xlink:href="#aj"/><use transform="matrix(0.06172839506172839,0,0,0.06172839506172839,72.71604938271605,0)" xlink:href="#ab"/></g><path fill="#3a414a" d="M160-131c35 5 61 23 61 61C221 17 115-2 30 0v-248c76 3 177-17 177 60 0 33-19 50-47 57zm-97-11c50-1 110 9 110-42 0-47-63-36-110-37v79zm0 115c55-2 124 14 124-45 0-56-70-42-124-44v89" id="az"/><g id="p"><use transform="matrix(0.06172839506172839,0,0,0.06172839506172839,0,0)" xlink:href="#az"/><use transform="matrix(0.06172839506172839,0,0,0.06172839506172839,14.814814814814813,0)" xlink:href="#aj"/><use transform="matrix(0.06172839506172839,0,0,0.06172839506172839,27.160493827160494,0)" xlink:href="#av"/><use transform="matrix(0.06172839506172839,0,0,0.06172839506172839,39.50617283950617,0)" xlink:href="#ar"/><use transform="matrix(0.06172839506172839,0,0,0.06172839506172839,44.382716049382715,0)" xlink:href="#af"/></g><g id="q"><use transform="matrix(0.06172839506172839,0,0,0.06172839506172839,0,0)" xlink:href="#av"/><use transform="matrix(0.06172839506172839,0,0,0.06172839506172839,12.345679012345679,0)" xlink:href="#aj"/><use transform="matrix(0.06172839506172839,0,0,0.06172839506172839,24.691358024691358,0)" xlink:href="#as"/></g><g id="r"><use transform="matrix(0.06172839506172839,0,0,0.06172839506172839,0,0)" xlink:href="#ac"/><use transform="matrix(0.06172839506172839,0,0,0.06172839506172839,12.345679012345679,0)" xlink:href="#aa"/><use transform="matrix(0.06172839506172839,0,0,0.06172839506172839,24.691358024691358,0)" xlink:href="#as"/><use transform="matrix(0.06172839506172839,0,0,0.06172839506172839,30.864197530864196,0)" xlink:href="#aa"/></g><path fill="#3a414a" d="M234-2c-28 10-62 0-77-18C117 19 8 12 13-65c3-43 29-61 60-76-25-40-17-114 47-108 35 3 59 15 59 50 0 44-40 53-71 69 14 26 32 50 51 72 14-21 24-43 30-72l26 8c-9 33-21 57-38 82 13 13 33 22 57 15v23zM97-151c25-10 52-18 56-48-1-18-13-29-33-29-42 0-39 50-23 77zM42-66c-3 51 71 58 98 28-20-24-41-51-56-80-23 10-40 24-42 52" id="aA"/><use transform="matrix(0.06172839506172839,0,0,0.06172839506172839,0,0)" xlink:href="#aA" id="s"/><g id="t"><use transform="matrix(0.06172839506172839,0,0,0.06172839506172839,0,0)" xlink:href="#ab"/><use transform="matrix(0.06172839506172839,0,0,0.06172839506172839,11.11111111111111,0)" xlink:href="#ad"/><use transform="matrix(0.06172839506172839,0,0,0.06172839506172839,23.45679012345679,0)" xlink:href="#af"/><use transform="matrix(0.06172839506172839,0,0,0.06172839506172839,35.80246913580247,0)" xlink:href="#av"/><use transform="matrix(0.06172839506172839,0,0,0.06172839506172839,48.148148148148145,0)" xlink:href="#ab"/></g><g id="u"><use transform="matrix(0.055555555555555546,0,0,0.055555555555555546,0,0)" xlink:href="#aw"/><use transform="matrix(0.055555555555555546,0,0,0.055555555555555546,16.611111111111107,0)" xlink:href="#ad"/><use transform="matrix(0.055555555555555546,0,0,0.055555555555555546,27.722222222222214,0)" xlink:href="#ay"/><use transform="matrix(0.055555555555555546,0,0,0.055555555555555546,38.83333333333332,0)" xlink:href="#ab"/><use transform="matrix(0.055555555555555546,0,0,0.055555555555555546,48.83333333333332,0)" xlink:href="#aj"/></g><path fill="#3a414a" d="M96-169c-40 0-48 33-48 73s9 75 48 75c24 0 41-14 43-38l32 2c-6 37-31 61-74 61-59 0-76-41-82-99-10-93 101-131 147-64 4 7 5 14 7 22l-32 3c-4-21-16-35-41-35" id="aB"/><path fill="#3a414a" d="M143 0L79-87 56-68V0H24v-261h32v163l83-92h37l-77 82L181 0h-38" id="aC"/><g id="v"><use transform="matrix(0.055555555555555546,0,0,0.055555555555555546,0,0)" xlink:href="#aB"/><use transform="matrix(0.055555555555555546,0,0,0.055555555555555546,9.999999999999998,0)" xlink:href="#ag"/><use transform="matrix(0.055555555555555546,0,0,0.055555555555555546,14.388888888888886,0)" xlink:href="#ar"/><use transform="matrix(0.055555555555555546,0,0,0.055555555555555546,18.777777777777775,0)" xlink:href="#aB"/><use transform="matrix(0.055555555555555546,0,0,0.055555555555555546,28.77777777777777,0)" xlink:href="#aC"/><use transform="matrix(0.055555555555555546,0,0,0.055555555555555546,38.77777777777777,0)" xlink:href="#ar"/><use transform="matrix(0.055555555555555546,0,0,0.055555555555555546,43.16666666666666,0)" xlink:href="#af"/><use transform="matrix(0.055555555555555546,0,0,0.055555555555555546,54.277777777777764,0)" xlink:href="#av"/></g><g id="w"><use transform="matrix(0.055555555555555546,0,0,0.055555555555555546,0,0)" xlink:href="#ar"/><use transform="matrix(0.055555555555555546,0,0,0.055555555555555546,4.388888888888888,0)" xlink:href="#ab"/></g><g id="x"><use transform="matrix(0.055555555555555546,0,0,0.055555555555555546,0,0)" xlink:href="#as"/><use transform="matrix(0.055555555555555546,0,0,0.055555555555555546,5.5555555555555545,0)" xlink:href="#ax"/><use transform="matrix(0.055555555555555546,0,0,0.055555555555555546,12.166666666666664,0)" xlink:href="#ay"/><use transform="matrix(0.055555555555555546,0,0,0.055555555555555546,23.27777777777777,0)" xlink:href="#aj"/><use transform="matrix(0.055555555555555546,0,0,0.055555555555555546,34.38888888888888,0)" xlink:href="#al"/></g><path fill="#333" d="M175 0L67-191c6 58 2 128 3 191H24v-248h59L193-55c-6-58-2-129-3-193h46V0h-61" id="aD"/><path fill="#333" d="M110-194c64 0 96 36 96 99 0 64-35 99-97 99-61 0-95-36-95-99 0-62 34-99 96-99zm-1 164c35 0 45-28 45-65 0-40-10-65-43-65-34 0-45 26-45 65 0 36 10 65 43 65" id="aE"/><g id="y"><use transform="matrix(0.04938271604938272,0,0,0.04938271604938272,0,0)" xlink:href="#aD"/><use transform="matrix(0.04938271604938272,0,0,0.04938271604938272,12.790123456790125,0)" xlink:href="#aE"/></g><g id="z"><use transform="matrix(0.06172839506172839,0,0,0.06172839506172839,0,0)" xlink:href="#aw"/><use transform="matrix(0.06172839506172839,0,0,0.06172839506172839,18.456790123456788,0)" xlink:href="#ad"/><use transform="matrix(0.06172839506172839,0,0,0.06172839506172839,30.80246913580247,0)" xlink:href="#ay"/><use transform="matrix(0.06172839506172839,0,0,0.06172839506172839,43.148148148148145,0)" xlink:href="#ab"/><use transform="matrix(0.06172839506172839,0,0,0.06172839506172839,54.25925925925925,0)" xlink:href="#aj"/></g><g id="A"><use transform="matrix(0.06172839506172839,0,0,0.06172839506172839,0,0)" xlink:href="#aB"/><use transform="matrix(0.06172839506172839,0,0,0.06172839506172839,11.11111111111111,0)" xlink:href="#ag"/><use transform="matrix(0.06172839506172839,0,0,0.06172839506172839,15.987654320987653,0)" xlink:href="#ar"/><use transform="matrix(0.06172839506172839,0,0,0.06172839506172839,20.864197530864196,0)" xlink:href="#aB"/><use transform="matrix(0.06172839506172839,0,0,0.06172839506172839,31.975308641975307,0)" xlink:href="#aC"/><use transform="matrix(0.06172839506172839,0,0,0.06172839506172839,43.08641975308642,0)" xlink:href="#ar"/><use transform="matrix(0.06172839506172839,0,0,0.06172839506172839,47.96296296296296,0)" xlink:href="#af"/><use transform="matrix(0.06172839506172839,0,0,0.06172839506172839,60.30864197530864,0)" xlink:href="#av"/></g><g id="B"><use transform="matrix(0.06172839506172839,0,0,0.06172839506172839,0,0)" xlink:href="#ah"/><use transform="matrix(0.06172839506172839,0,0,0.06172839506172839,12.345679012345679,0)" xlink:href="#ay"/><use transform="matrix(0.06172839506172839,0,0,0.06172839506172839,24.691358024691358,0)" xlink:href="#as"/><use transform="matrix(0.06172839506172839,0,0,0.06172839506172839,30.864197530864196,0)" xlink:href="#as"/><use transform="matrix(0.06172839506172839,0,0,0.06172839506172839,37.03703703703704,0)" xlink:href="#ad"/><use transform="matrix(0.06172839506172839,0,0,0.06172839506172839,49.382716049382715,0)" xlink:href="#af"/></g><path fill="#3a414a" d="M30 0v-248h187v28H63v79h144v27H63v87h162V0H30" id="aF"/><g id="C"><use transform="matrix(0.06172839506172839,0,0,0.06172839506172839,0,0)" xlink:href="#aF"/><use transform="matrix(0.06172839506172839,0,0,0.06172839506172839,14.814814814814813,0)" xlink:href="#af"/><use transform="matrix(0.06172839506172839,0,0,0.06172839506172839,27.160493827160494,0)" xlink:href="#ac"/></g><g id="D"><use transform="matrix(0.06172839506172839,0,0,0.06172839506172839,0,0)" xlink:href="#aw"/><use transform="matrix(0.06172839506172839,0,0,0.06172839506172839,18.456790123456788,0)" xlink:href="#ad"/><use transform="matrix(0.06172839506172839,0,0,0.06172839506172839,30.80246913580247,0)" xlink:href="#ay"/><use transform="matrix(0.06172839506172839,0,0,0.06172839506172839,43.148148148148145,0)" xlink:href="#ab"/><use transform="matrix(0.06172839506172839,0,0,0.06172839506172839,54.25925925925925,0)" xlink:href="#aj"/></g><g id="E"><use transform="matrix(0.06172839506172839,0,0,0.06172839506172839,0,0)" xlink:href="#aB"/><use transform="matrix(0.06172839506172839,0,0,0.06172839506172839,11.11111111111111,0)" xlink:href="#ag"/><use transform="matrix(0.06172839506172839,0,0,0.06172839506172839,15.987654320987653,0)" xlink:href="#ar"/><use transform="matrix(0.06172839506172839,0,0,0.06172839506172839,20.864197530864196,0)" xlink:href="#aB"/><use transform="matrix(0.06172839506172839,0,0,0.06172839506172839,31.975308641975307,0)" xlink:href="#aC"/><use transform="matrix(0.06172839506172839,0,0,0.06172839506172839,43.08641975308642,0)" xlink:href="#ar"/><use transform="matrix(0.06172839506172839,0,0,0.06172839506172839,47.96296296296296,0)" xlink:href="#af"/><use transform="matrix(0.06172839506172839,0,0,0.06172839506172839,60.30864197530864,0)" xlink:href="#av"/></g><path fill="#3a414a" d="M145-31C134-9 116 4 85 4 32 4 16-35 15-94c0-59 17-99 70-100 32-1 48 14 60 33 0-11-1-24 2-32h30l-1 268h-32zM93-21c41 0 51-33 51-76s-8-73-50-73c-40 0-46 35-46 75s5 74 45 74" id="aG"/><g id="F"><use transform="matrix(0.06172839506172839,0,0,0.06172839506172839,0,0)" xlink:href="#aG"/><use transform="matrix(0.06172839506172839,0,0,0.06172839506172839,12.345679012345679,0)" xlink:href="#ay"/><use transform="matrix(0.06172839506172839,0,0,0.06172839506172839,24.691358024691358,0)" xlink:href="#ar"/><use transform="matrix(0.06172839506172839,0,0,0.06172839506172839,29.5679012345679,0)" xlink:href="#as"/></g><path fill="#3a414a" d="M212-179c-10-28-35-45-73-45-59 0-87 40-87 99 0 60 29 101 89 101 43 0 62-24 78-52l27 14C228-24 195 4 139 4 59 4 22-46 18-125c-6-104 99-153 187-111 19 9 31 26 39 46" id="aH"/><g id="G"><use transform="matrix(0.06172839506172839,0,0,0.06172839506172839,0,0)" xlink:href="#aH"/><use transform="matrix(0.06172839506172839,0,0,0.06172839506172839,15.987654320987653,0)" xlink:href="#ag"/><use transform="matrix(0.06172839506172839,0,0,0.06172839506172839,20.864197530864196,0)" xlink:href="#ad"/><use transform="matrix(0.06172839506172839,0,0,0.06172839506172839,33.20987654320987,0)" xlink:href="#ab"/><use transform="matrix(0.06172839506172839,0,0,0.06172839506172839,44.32098765432099,0)" xlink:href="#aj"/></g><g id="H"><use transform="matrix(0.06172839506172839,0,0,0.06172839506172839,0,0)" xlink:href="#aj"/><use transform="matrix(0.06172839506172839,0,0,0.06172839506172839,12.345679012345679,0)" xlink:href="#ai"/><use transform="matrix(0.06172839506172839,0,0,0.06172839506172839,23.45679012345679,0)" xlink:href="#ar"/><use transform="matrix(0.06172839506172839,0,0,0.06172839506172839,28.333333333333336,0)" xlink:href="#ab"/><use transform="matrix(0.06172839506172839,0,0,0.06172839506172839,39.44444444444444,0)" xlink:href="#as"/><use transform="matrix(0.06172839506172839,0,0,0.06172839506172839,45.617283950617285,0)" xlink:href="#ar"/><use transform="matrix(0.06172839506172839,0,0,0.06172839506172839,50.49382716049383,0)" xlink:href="#af"/><use transform="matrix(0.06172839506172839,0,0,0.06172839506172839,62.839506172839506,0)" xlink:href="#av"/></g><g id="I"><use transform="matrix(0.06172839506172839,0,0,0.06172839506172839,0,0)" xlink:href="#at"/><use transform="matrix(0.06172839506172839,0,0,0.06172839506172839,12.345679012345679,0)" xlink:href="#ad"/><use transform="matrix(0.06172839506172839,0,0,0.06172839506172839,24.691358024691358,0)" xlink:href="#at"/><use transform="matrix(0.06172839506172839,0,0,0.06172839506172839,37.03703703703704,0)" xlink:href="#ay"/><use transform="matrix(0.06172839506172839,0,0,0.06172839506172839,49.382716049382715,0)" xlink:href="#at"/></g><g id="J"><use transform="matrix(0.06172839506172839,0,0,0.06172839506172839,0,0)" xlink:href="#ae"/><use transform="matrix(0.06172839506172839,0,0,0.06172839506172839,15.987654320987653,0)" xlink:href="#ar"/><use transform="matrix(0.06172839506172839,0,0,0.06172839506172839,20.864197530864196,0)" xlink:href="#af"/><use transform="matrix(0.06172839506172839,0,0,0.06172839506172839,33.20987654320987,0)" xlink:href="#ac"/><use transform="matrix(0.06172839506172839,0,0,0.06172839506172839,45.55555555555555,0)" xlink:href="#ad"/><use transform="matrix(0.06172839506172839,0,0,0.06172839506172839,57.90123456790123,0)" xlink:href="#ae"/><use transform="matrix(0.06172839506172839,0,0,0.06172839506172839,73.88888888888889,0)" xlink:href="#ab"/></g><g id="K"><use transform="matrix(0.06172839506172839,0,0,0.06172839506172839,0,0)" xlink:href="#aq"/><use transform="matrix(0.06172839506172839,0,0,0.06172839506172839,6.172839506172839,0)" xlink:href="#ab"/></g><g id="L"><use transform="matrix(0.06172839506172839,0,0,0.06172839506172839,0,0)" xlink:href="#aC"/><use transform="matrix(0.06172839506172839,0,0,0.06172839506172839,11.11111111111111,0)" xlink:href="#aj"/><use transform="matrix(0.06172839506172839,0,0,0.06172839506172839,23.45679012345679,0)" xlink:href="#au"/></g><g id="M"><use transform="matrix(0.06172839506172839,0,0,0.06172839506172839,0,0)" xlink:href="#ah"/><use transform="matrix(0.06172839506172839,0,0,0.06172839506172839,12.345679012345679,0)" xlink:href="#aj"/><use transform="matrix(0.06172839506172839,0,0,0.06172839506172839,24.691358024691358,0)" xlink:href="#ar"/><use transform="matrix(0.06172839506172839,0,0,0.06172839506172839,29.5679012345679,0)" xlink:href="#af"/><use transform="matrix(0.06172839506172839,0,0,0.06172839506172839,41.913580246913575,0)" xlink:href="#av"/></g><g id="N"><use transform="matrix(0.06172839506172839,0,0,0.06172839506172839,0,0)" xlink:href="#at"/><use transform="matrix(0.06172839506172839,0,0,0.06172839506172839,12.345679012345679,0)" xlink:href="#ax"/><use transform="matrix(0.06172839506172839,0,0,0.06172839506172839,19.691358024691358,0)" xlink:href="#aj"/><use transform="matrix(0.06172839506172839,0,0,0.06172839506172839,32.03703703703704,0)" xlink:href="#ab"/><use transform="matrix(0.06172839506172839,0,0,0.06172839506172839,43.14814814814815,0)" xlink:href="#ab"/><use transform="matrix(0.06172839506172839,0,0,0.06172839506172839,54.25925925925927,0)" xlink:href="#aj"/><use transform="matrix(0.06172839506172839,0,0,0.06172839506172839,66.60493827160495,0)" xlink:href="#ac"/></g><g id="O"><use transform="matrix(0.06172839506172839,0,0,0.06172839506172839,0,0)" xlink:href="#aC"/><use transform="matrix(0.06172839506172839,0,0,0.06172839506172839,11.11111111111111,0)" xlink:href="#aj"/><use transform="matrix(0.06172839506172839,0,0,0.06172839506172839,23.45679012345679,0)" xlink:href="#au"/></g><g id="P"><use transform="matrix(0.06172839506172839,0,0,0.06172839506172839,0,0)" xlink:href="#aj"/><use transform="matrix(0.06172839506172839,0,0,0.06172839506172839,12.345679012345679,0)" xlink:href="#ab"/><use transform="matrix(0.06172839506172839,0,0,0.06172839506172839,23.45679012345679,0)" xlink:href="#aB"/><use transform="matrix(0.06172839506172839,0,0,0.06172839506172839,34.5679012345679,0)" xlink:href="#aa"/><use transform="matrix(0.06172839506172839,0,0,0.06172839506172839,46.913580246913575,0)" xlink:href="#at"/><use transform="matrix(0.06172839506172839,0,0,0.06172839506172839,59.25925925925925,0)" xlink:href="#aj"/></g><path fill="#3a414a" d="M240 0l2-218c-23 76-54 145-80 218h-23L58-218 59 0H30v-248h44l77 211c21-75 51-140 76-211h43V0h-30" id="aI"/><g id="Q"><use transform="matrix(0.06172839506172839,0,0,0.06172839506172839,0,0)" xlink:href="#aI"/><use transform="matrix(0.06172839506172839,0,0,0.06172839506172839,18.456790123456788,0)" xlink:href="#ad"/><use transform="matrix(0.06172839506172839,0,0,0.06172839506172839,30.80246913580247,0)" xlink:href="#ay"/><use transform="matrix(0.06172839506172839,0,0,0.06172839506172839,43.148148148148145,0)" xlink:href="#ab"/><use transform="matrix(0.06172839506172839,0,0,0.06172839506172839,54.25925925925925,0)" xlink:href="#aj"/></g><g id="R"><use transform="matrix(0.06172839506172839,0,0,0.06172839506172839,0,0)" xlink:href="#aB"/><use transform="matrix(0.06172839506172839,0,0,0.06172839506172839,11.11111111111111,0)" xlink:href="#ag"/><use transform="matrix(0.06172839506172839,0,0,0.06172839506172839,15.987654320987653,0)" xlink:href="#ar"/><use transform="matrix(0.06172839506172839,0,0,0.06172839506172839,20.864197530864196,0)" xlink:href="#aB"/><use transform="matrix(0.06172839506172839,0,0,0.06172839506172839,31.975308641975307,0)" xlink:href="#ar"/><use transform="matrix(0.06172839506172839,0,0,0.06172839506172839,36.85185185185185,0)" xlink:href="#aC"/><use transform="matrix(0.06172839506172839,0,0,0.06172839506172839,47.96296296296296,0)" xlink:href="#ar"/><use transform="matrix(0.06172839506172839,0,0,0.06172839506172839,52.839506172839506,0)" xlink:href="#af"/><use transform="matrix(0.06172839506172839,0,0,0.06172839506172839,65.18518518518519,0)" xlink:href="#av"/></g><g id="S"><use transform="matrix(0.06172839506172839,0,0,0.06172839506172839,0,0)" xlink:href="#au"/><use transform="matrix(0.06172839506172839,0,0,0.06172839506172839,11.11111111111111,0)" xlink:href="#aj"/><use transform="matrix(0.06172839506172839,0,0,0.06172839506172839,23.45679012345679,0)" xlink:href="#ab"/></g><path fill="#3a414a" d="M143 4C61 4 22-44 18-125c-5-107 100-154 193-111 17 8 29 25 37 43l-32 9c-13-25-37-40-76-40-61 0-88 39-88 99 0 61 29 100 91 101 35 0 62-11 79-27v-45h-74v-28h105v86C228-13 192 4 143 4" id="aJ"/><g id="T"><use transform="matrix(0.06172839506172839,0,0,0.06172839506172839,0,0)" xlink:href="#aJ"/><use transform="matrix(0.06172839506172839,0,0,0.06172839506172839,17.28395061728395,0)" xlink:href="#ad"/><use transform="matrix(0.06172839506172839,0,0,0.06172839506172839,29.629629629629626,0)" xlink:href="#as"/><use transform="matrix(0.06172839506172839,0,0,0.06172839506172839,35.80246913580247,0)" xlink:href="#ad"/></g><g id="U"><use transform="matrix(0.06172839506172839,0,0,0.06172839506172839,0,0)" xlink:href="#ac"/><use transform="matrix(0.06172839506172839,0,0,0.06172839506172839,12.345679012345679,0)" xlink:href="#ad"/><use transform="matrix(0.06172839506172839,0,0,0.06172839506172839,24.691358024691358,0)" xlink:href="#ae"/><use transform="matrix(0.06172839506172839,0,0,0.06172839506172839,40.67901234567901,0)" xlink:href="#af"/><use transform="matrix(0.06172839506172839,0,0,0.06172839506172839,53.02469135802469,0)" xlink:href="#ag"/><use transform="matrix(0.06172839506172839,0,0,0.06172839506172839,57.901234567901234,0)" xlink:href="#ad"/><use transform="matrix(0.06172839506172839,0,0,0.06172839506172839,70.24691358024691,0)" xlink:href="#aa"/><use transform="matrix(0.06172839506172839,0,0,0.06172839506172839,82.5925925925926,0)" xlink:href="#ac"/></g><path fill="#3a414a" d="M30-248c118-7 216 8 213 122C240-48 200 0 122 0H30v-248zM63-27c89 8 146-16 146-99s-60-101-146-95v194" id="aK"/><g id="V"><use transform="matrix(0.06172839506172839,0,0,0.06172839506172839,0,0)" xlink:href="#aK"/><use transform="matrix(0.06172839506172839,0,0,0.06172839506172839,15.987654320987653,0)" xlink:href="#ad"/><use transform="matrix(0.06172839506172839,0,0,0.06172839506172839,28.333333333333332,0)" xlink:href="#ae"/><use transform="matrix(0.06172839506172839,0,0,0.06172839506172839,44.32098765432099,0)" xlink:href="#af"/><use transform="matrix(0.06172839506172839,0,0,0.06172839506172839,56.666666666666664,0)" xlink:href="#ag"/><use transform="matrix(0.06172839506172839,0,0,0.06172839506172839,61.54320987654321,0)" xlink:href="#ad"/><use transform="matrix(0.06172839506172839,0,0,0.06172839506172839,73.88888888888889,0)" xlink:href="#aa"/><use transform="matrix(0.06172839506172839,0,0,0.06172839506172839,86.23456790123457,0)" xlink:href="#ac"/><use transform="matrix(0.06172839506172839,0,0,0.06172839506172839,98.58024691358025,0)" xlink:href="#ab"/></g><g id="W"><use transform="matrix(0.06172839506172839,0,0,0.06172839506172839,0,0)" xlink:href="#ac"/><use transform="matrix(0.06172839506172839,0,0,0.06172839506172839,12.345679012345679,0)" xlink:href="#ad"/><use transform="matrix(0.06172839506172839,0,0,0.06172839506172839,24.691358024691358,0)" xlink:href="#af"/><use transform="matrix(0.06172839506172839,0,0,0.06172839506172839,37.03703703703704,0)" xlink:href="#aj"/><use transform="matrix(0.06172839506172839,0,0,0.06172839506172839,49.382716049382715,0)" xlink:href="#al"/></g></defs></g></svg>