<svg xmlns="http://www.w3.org/2000/svg" xmlns:xlink="http://www.w3.org/1999/xlink" xmlns:lucid="lucid" width="1371" height="2337.67"><g transform="translate(-449 340)" lucid:page-tab-id="0_0"><path d="M854.8 807.5h240v60h-240z" fill="none"/><use xlink:href="#a" transform="matrix(1,0,0,1,854.7916666666666,807.5) translate(106.72222222222223 34)"/><path d="M700 120.96v24.16" stroke="#3a414a" fill="none"/><path d="M700.5 120.98h-1v-.52h1z" stroke="#3a414a" stroke-width=".05" fill="#3a414a"/><path d="M700 159.88l-4.64-14.26h9.28z" stroke="#3a414a" fill="#3a414a"/><path d="M650.38 984.07a6.5 6.5 0 0 1 8.82 0l85.97 79.36a5.54 5.54 0 0 1 0 8.14l-85.97 79.36a6.5 6.5 0 0 1-8.82 0l-85.97-79.36a5.54 5.54 0 0 1 0-8.14z" stroke="#3a414a" fill="#fff"/><use xlink:href="#b" transform="matrix(1,0,0,1,565,985) translate(72.25500000000002 57.249999999999986)"/><use xlink:href="#c" transform="matrix(1,0,0,1,565,985) translate(28.393888888888945 81.24999999999996)"/><use xlink:href="#d" transform="matrix(1,0,0,1,565,985) translate(119.39388888888887 81.24999999999996)"/><use xlink:href="#e" transform="matrix(1,0,0,1,565,985) translate(30.08833333333339 105.24999999999993)"/><use xlink:href="#f" transform="matrix(1,0,0,1,565,985) translate(80.08833333333334 105.24999999999993)"/><path d="M655.8 1163.35h-2v-9.2h2z" stroke="#008a0e" stroke-width=".05" fill="#008a0e"/><path d="M654.8 1153.16l1-.08v1.1h-2v-1.1z" fill="#008a0e"/><path d="M654.8 1153.13l1.02-.08v1.16h-2.05v-1.15zm-.98 1.03h1.95v-1.05l-.98.08-.98-.07z" stroke="#008a0e" stroke-width=".05" fill="#008a0e"/><path d="M654.8 1191.63l-2.27-6.95h4.52z" fill="#008a0e"/><path d="M654.8 1194.87l-3.32-10.2h2.1l1.2 3.73 1.22-3.72h2.1z" stroke="#008a0e" stroke-width=".05" fill="#008a0e"/><use xlink:href="#g" transform="matrix(1,0,0,1,639.483024691358,1163.3461028403244) translate(0 14.222222222222223)"/><path d="M1056.1 787.8a10 10 0 0 1 8.82-5.3h106c8.83 0 16 26.86 16 60s-7.17 60-16 60h-106a10 10 0 0 1-8.83-5.3l-26.36-49.4a11.25 11.25 0 0 1 0-10.6z" stroke="#3a414a" fill="#fff"/><use xlink:href="#h" transform="matrix(1,0,0,1,1031.9169802984902,787.5) translate(52.258086419753084 45.27777777777778)"/><use xlink:href="#i" transform="matrix(1,0,0,1,1031.9169802984902,787.5) translate(11.048209876543206 71.94444444444446)"/><use xlink:href="#j" transform="matrix(1,0,0,1,1031.9169802984902,787.5) translate(112.15932098765433 71.94444444444446)"/><path d="M1106.92 903.5v44.12" stroke="#3a414a" fill="none"/><path d="M1107.42 903.5h-1v-.5h1z" stroke="#3a414a" stroke-width=".05" fill="#3a414a"/><path d="M1106.92 962.38l-4.64-14.26h9.27z" stroke="#3a414a" fill="#3a414a"/><path d="M649.18-154.7A10 10 0 0 1 658-160h84a10 10 0 0 1 8.82 5.3l26.36 49.4a11.25 11.25 0 0 1 0 10.6l-26.36 49.4A10 10 0 0 1 742-40h-84a10 10 0 0 1-8.82-5.3l-26.36-49.4a11.25 11.25 0 0 1 0-10.6z" stroke="#3a414a" fill="#fff"/><use xlink:href="#k" transform="matrix(1,0,0,1,625,-155) translate(23.76543209876545 26.55555555555555)"/><use xlink:href="#l" transform="matrix(1,0,0,1,625,-155) translate(-5.641975308641946 47.88888888888888)"/><use xlink:href="#m" transform="matrix(1,0,0,1,625,-155) translate(6.481481481481524 69.22222222222221)"/><use xlink:href="#n" transform="matrix(1,0,0,1,625,-155) translate(0.1358024691358395 90.55555555555554)"/><path d="M700-39.03v22.18" stroke="#3a414a" fill="none"/><path d="M700.5-39.02h-1v-.5h1z" stroke="#3a414a" stroke-width=".05" fill="#3a414a"/><path d="M700-2.08l-4.64-14.27h9.28z" stroke="#3a414a" fill="#3a414a"/><path d="M748-320c17.67 0 32 17.9 32 40s-14.33 40-32 40h-96c-17.67 0-32-17.9-32-40s14.33-40 32-40z" stroke="#3a414a" fill="#fff"/><use xlink:href="#o" transform="matrix(1,0,0,1,625,-315) translate(46.635802469135804 39.65277777777778)"/><path d="M700-239v62.14" stroke="#3a414a" fill="none"/><path d="M700.5-239h-1v-.5h1z" stroke="#3a414a" stroke-width=".05" fill="#3a414a"/><path d="M700-162.1l-4.64-14.26h9.28z" stroke="#3a414a" fill="#3a414a"/><path d="M620 6a6 6 0 0 1 6-6h148a6 6 0 0 1 6 6v108a6 6 0 0 1-6 6H626a6 6 0 0 1-6-6zm16-6v120M620 16h160" stroke="#3a414a" fill="#fff"/><use xlink:href="#p" transform="matrix(1,0,0,1,641,21) translate(16.382716049382722 38.34027777777778)"/><use xlink:href="#q" transform="matrix(1,0,0,1,641,21) translate(53.41975308641976 38.34027777777778)"/><use xlink:href="#r" transform="matrix(1,0,0,1,641,21) translate(102.80246913580247 38.34027777777778)"/><use xlink:href="#s" transform="matrix(1,0,0,1,641,21) translate(37.370370370370374 65.00694444444446)"/><path d="M1102.12 966.1a8 8 0 0 1 9.6 0l70.4 52.8a4.5 4.5 0 0 1 0 7.2l-70.4 52.8a8 8 0 0 1-9.6 0l-70.4-52.8a4.5 4.5 0 0 1 0-7.2z" stroke="#3a414a" fill="#fff"/><use xlink:href="#t" transform="matrix(1,0,0,1,1031.9169802984902,967.5) translate(22.866111111111117 60.6875)"/><use xlink:href="#u" transform="matrix(1,0,0,1,1031.9169802984902,967.5) translate(88.36611111111111 60.6875)"/><path d="M1107.92 1125.5h-2v-2.33h2zm0-23.67h-2V1082h2z" stroke="#008a0e" stroke-width=".05" fill="#008a0e"/><path d="M1106.92 1081l1-.06v1.1h-2v-1.1z" fill="#008a0e"/><path d="M1106.92 1080.98l1.02-.07v1.15h-2.05v-1.14zm-.98 1.02h1.95v-1.04l-.98.07-.98-.07z" stroke="#008a0e" stroke-width=".05" fill="#008a0e"/><path d="M1106.92 1140.76l-4.64-14.26h9.27z" fill="#008a0e"/><path d="M1106.92 1144l-6-18.5h12zm-3.26-16.5l3.26 10.03 3.26-10.03z" stroke="#008a0e" stroke-width=".05" fill="#008a0e"/><use xlink:href="#g" transform="matrix(1,0,0,1,1091.6083383231817,1101.8333333333333) translate(0 14.222222222222223)"/><path d="M1206.32 1023.5h-20.9v-2h20.9zm44.6 0h-21v-2h21z" stroke="#e81313" stroke-width=".05" fill="#e81313"/><path d="M1185.44 1023.5h-1.13l.12-1-.1-.92 1.12-.08z" fill="#e81313"/><path d="M1185.47 1023.52h-1.2l.12-1.02-.1-.95 1.17-.08zm-1.1-1.92l.07.9-.1.98h1.08v-1.95z" stroke="#e81313" stroke-width=".05" fill="#e81313"/><path d="M1266.18 1022.5l-14.27 4.64v-9.28z" fill="#e81313"/><path d="M1269.4 1022.5l-18.5 6v-12zm-16.5 3.26l10.04-3.26-10.03-3.26z" stroke="#e81313" stroke-width=".05" fill="#e81313"/><use xlink:href="#v" transform="matrix(1,0,0,1,1206.3200262327762,1011.8333333333334) translate(0 14.222222222222223)"/><path d="M1102.12 1146.1a8 8 0 0 1 9.6 0l70.4 52.8a4.5 4.5 0 0 1 0 7.2l-70.4 52.8a8 8 0 0 1-9.6 0l-70.4-52.8a4.5 4.5 0 0 1 0-7.2z" stroke="#3a414a" fill="#fff"/><use xlink:href="#w" transform="matrix(1,0,0,1,1031.9169802984902,1147.5) translate(28.708703703703705 59.02777777777778)"/><use xlink:href="#x" transform="matrix(1,0,0,1,1031.9169802984902,1147.5) translate(59.5729012345679 59.02777777777778)"/><path d="M1107.92 1350.3h-2v-30.64h2zm0-51.98h-2V1262h2z" stroke="#008a0e" stroke-width=".05" fill="#008a0e"/><path d="M1106.92 1261l1-.06v1.1h-2v-1.1z" fill="#008a0e"/><path d="M1106.92 1260.98l1.02-.07v1.15h-2.05v-1.14zm-.98 1.02h1.95v-1.04l-.98.07-.98-.07z" stroke="#008a0e" stroke-width=".05" fill="#008a0e"/><path d="M1106.92 1365.58l-4.64-14.27h9.27z" fill="#008a0e"/><path d="M1106.92 1368.82l-6-18.5h12zm-3.26-16.5l3.26 10.02 3.26-10.03z" stroke="#008a0e" stroke-width=".05" fill="#008a0e"/><use xlink:href="#y" transform="matrix(1,0,0,1,1091.6083383231817,1298.3228812588072) translate(0 14.222222222222223)"/><path d="M748 1620c17.67 0 32 17.9 32 40s-14.33 40-32 40h-96c-17.67 0-32-17.9-32-40s14.33-40 32-40z" stroke="#3a414a" fill="#fff"/><use xlink:href="#z" transform="matrix(1,0,0,1,625,1625) translate(55.24691358024691 39.65277777777778)"/><path d="M1101.92 1370.83a9 9 0 0 1 10 0l80 53.34a4 4 0 0 1 0 6.66l-80 53.34a9 9 0 0 1-10 0l-80-53.34a4 4 0 0 1 0-6.66z" stroke="#3a414a" fill="#fff"/><use xlink:href="#w" transform="matrix(1,0,0,1,1021.9169802984902,1372.5) translate(51.70253086419754 59.02777777777778)"/><use xlink:href="#A" transform="matrix(1,0,0,1,1021.9169802984902,1372.5) translate(82.56672839506173 59.02777777777778)"/><path d="M1107.92 1654.04l-.1 1.06-.24 1.06-.42 1.02-.58.94-.7.83-.85.72-.93.57-1.02.42-1.1.27L799 1661v-2l302.74-.07.72-.18.73-.3.65-.4.6-.52.5-.6.42-.66.3-.73.18-.76.07-.82v-87.7h2zm0-109.12h-2v-57.74h2z" stroke="#008a0e" stroke-width=".05" fill="#008a0e"/><path d="M1106.92 1486.18l1-.05v1.08h-2v-1.07z" fill="#008a0e"/><path d="M1106.92 1486.16l1.02-.06v1.13h-2.05v-1.13zm-.98 1.02h1.95v-1.03l-.98.06-.98-.05z" stroke="#008a0e" stroke-width=".05" fill="#008a0e"/><path d="M798 1664.64l-14.26-4.64 14.26-4.64z" fill="#008a0e"/><path d="M799 1666l-18.5-6 18.5-6zm-12.03-6l10.03 3.26v-6.52z" stroke="#008a0e" stroke-width=".05" fill="#008a0e"/><use xlink:href="#g" transform="matrix(1,0,0,1,1091.6083383231817,1544.9218913191983) translate(0 14.222222222222223)"/><path d="M574.8 1201.33a6 6 0 0 1 6-6h148a6 6 0 0 1 6 6v108a6 6 0 0 1-6 6h-148a6 6 0 0 1-6-6z" stroke="#3a414a" fill="#fff"/><use xlink:href="#B" transform="matrix(1,0,0,1,586.7916666666666,1207.3333333333335) translate(8.154320987654323 38.77777777777778)"/><use xlink:href="#C" transform="matrix(1,0,0,1,586.7916666666666,1207.3333333333335) translate(66.11728395061729 38.77777777777778)"/><use xlink:href="#D" transform="matrix(1,0,0,1,586.7916666666666,1207.3333333333335) translate(25.5 65.44444444444446)"/><path d="M1342.12 966.1a8 8 0 0 1 9.6 0l70.4 52.8a4.5 4.5 0 0 1 0 7.2l-70.4 52.8a8 8 0 0 1-9.6 0l-70.4-52.8a4.5 4.5 0 0 1 0-7.2z" stroke="#3a414a" fill="#fff"/><use xlink:href="#E" transform="matrix(1,0,0,1,1271.9169802984902,967.5) translate(15.159320987654306 59.02777777777778)"/><use xlink:href="#F" transform="matrix(1,0,0,1,1271.9169802984902,967.5) translate(55.900061728395045 59.02777777777778)"/><path d="M978 1197.32l.16.72.3.73.4.67.52.6.6.5.67.4.72.3.77.2.82.06h45.45v2H982.9l-1.06-.08-1.07-.26-1-.42-.95-.57-.83-.72-.72-.83-.57-.94-.42-1.02-.27-1.1v-20.87h2zm32.92-348.07l-28.82.07-.73.17-.72.3-.67.4-.6.5-.5.6-.42.68-.3.72-.18.76-.06.82.06 301.07h-2l-.06-301.14.08-1.05.26-1.07.42-1 .57-.95.72-.84.83-.72.94-.57 1-.4 1.12-.28 29.05-.07z" stroke="#e81313" stroke-width=".05" fill="#e81313"/><path d="M1029.5 1201.58l-.1.92.1.92-1.1.08v-2h1.12z" fill="#e81313"/><path d="M1029.53 1201.58l-.1.92.1.95-1.17.08v-2.06h1.2zm-1.12-.05v1.94l1.07-.07-.08-.9.08-.93v-.04z" stroke="#e81313" stroke-width=".05" fill="#e81313"/><path d="M1026.18 848.25l-14.27 4.63v-9.27z" fill="#e81313"/><path d="M1029.4 848.25l-18.5 6v-12.02zm-16.5 3.25l10.04-3.25-10.03-3.26z" stroke="#e81313" stroke-width=".05" fill="#e81313"/><use xlink:href="#v" transform="matrix(1,0,0,1,965.1145111626879,1155.351893774789) translate(0 14.222222222222223)"/><path d="M1347.92 1125.5h-2v-2.33h2zm0-23.67h-2V1082h2z" stroke="#008a0e" stroke-width=".05" fill="#008a0e"/><path d="M1346.92 1081l1-.06v1.1h-2v-1.1z" fill="#008a0e"/><path d="M1346.92 1080.98l1.02-.07v1.15h-2.05v-1.14zm-.98 1.02h1.95v-1.04l-.98.07-.98-.07z" stroke="#008a0e" stroke-width=".05" fill="#008a0e"/><path d="M1346.92 1140.76l-4.64-14.26h9.27z" fill="#008a0e"/><path d="M1346.92 1144l-6-18.5h12zm-3.26-16.5l3.26 10.03 3.26-10.03z" stroke="#008a0e" stroke-width=".05" fill="#008a0e"/><use xlink:href="#g" transform="matrix(1,0,0,1,1331.6083383231817,1101.8333333333333) translate(0 14.222222222222223)"/><path d="M1342.12 1146.1a8 8 0 0 1 9.6 0l70.4 52.8a4.5 4.5 0 0 1 0 7.2l-70.4 52.8a8 8 0 0 1-9.6 0l-70.4-52.8a4.5 4.5 0 0 1 0-7.2z" stroke="#3a414a" fill="#fff"/><use xlink:href="#G" transform="matrix(1,0,0,1,1271.9169802984902,1147.5) translate(39.20253086419753 59.02777777777778)"/><path d="M1297.73 1288.65l-543.95.07v-2l543.95-.07zm50.2-6.9l-.1 1.07-.25 1.07-.42 1-.58.94-.7.83-.85.72-.93.56-1.02.42-1.1.27h-13.63v-2h13.4l.7-.18.74-.3.65-.4.6-.52.5-.6.42-.66.3-.73.18-.77.07-.82V1262h2z" stroke="#008a0e" stroke-width=".05" fill="#008a0e"/><path d="M1346.92 1261l1-.06v1.1h-2v-1.1z" fill="#008a0e"/><path d="M1346.92 1260.98l1.02-.07v1.15h-2.05v-1.14zm-.98 1.02h1.95v-1.04l-.98.07-.98-.07z" stroke="#008a0e" stroke-width=".05" fill="#008a0e"/><path d="M752.78 1292.36l-14.27-4.64 14.28-4.63z" fill="#008a0e"/><path d="M753.78 1293.73l-18.5-6 18.5-6.02zm-12.03-6l10.03 3.25v-6.52z" stroke="#008a0e" stroke-width=".05" fill="#008a0e"/><use xlink:href="#y" transform="matrix(1,0,0,1,1297.7293500809296,1277.0547603151751) translate(0 14.222222222222223)"/><path d="M1210.86 1428.5h-15.65v-2h15.66zm46.94 0h-23.33v-2h23.33z" stroke="#e81313" stroke-width=".05" fill="#e81313"/><path d="M1195.23 1428.5h-1.15l.04-.12.1-.88-.1-.88-.04-.12h1.15z" fill="#e81313"/><path d="M1195.26 1428.53h-1.2l.04-.16.08-.87-.08-.87-.05-.16h1.2zm-1.14-2l.03.1.08.87-.08.88-.03.1h1.1v-1.95z" stroke="#e81313" stroke-width=".05" fill="#e81313"/><path d="M1273.07 1427.5l-14.27 4.64v-9.28z" fill="#e81313"/><path d="M1276.3 1427.5l-18.5 6v-12zm-16.5 3.26l10.03-3.26-10.03-3.26z" stroke="#e81313" stroke-width=".05" fill="#e81313"/><use xlink:href="#v" transform="matrix(1,0,0,1,1210.862558783427,1416.8333333333333) translate(0 14.222222222222223)"/><path d="M1349 1371.1a8 8 0 0 1 9.6 0l70.4 52.8a4.5 4.5 0 0 1 0 7.2l-70.4 52.8a8 8 0 0 1-9.6 0l-70.4-52.8a4.5 4.5 0 0 1 0-7.2z" stroke="#3a414a" fill="#fff"/><use xlink:href="#H" transform="matrix(1,0,0,1,1278.8082580758323,1372.5) translate(41.702530864197534 37.78777777777778)"/><use xlink:href="#I" transform="matrix(1,0,0,1,1278.8082580758323,1372.5) translate(36.239567901234565 64.45444444444445)"/><use xlink:href="#J" transform="matrix(1,0,0,1,1278.8082580758323,1372.5) translate(57.72104938271605 91.1211111111111)"/><path d="M1302.98 1622.8a10 10 0 0 1 8.83-5.3h106c8.84 0 16 26.86 16 60s-7.16 60-16 60h-106a10 10 0 0 1-8.82-5.3l-26.35-49.4a11.25 11.25 0 0 1 0-10.6z" stroke="#3a414a" fill="#fff"/><use xlink:href="#K" transform="matrix(1,0,0,1,1278.8082580758323,1622.5) translate(55.930925925925926 45.27777777777778)"/><use xlink:href="#L" transform="matrix(1,0,0,1,1278.8082580758323,1622.5) translate(32.035864197530856 71.94444444444446)"/><path d="M1354.8 1598.53h-2v-36.35h2zm0-57.68h-2V1487h2z" stroke="#008a0e" stroke-width=".05" fill="#008a0e"/><path d="M1353.8 1486l1-.06v1.1h-2v-1.1z" fill="#008a0e"/><path d="M1353.8 1485.98l1.03-.07v1.15h-2.05v-1.14zm-.97 1.02h1.95v-1.04l-.97.07-.97-.07z" stroke="#008a0e" stroke-width=".05" fill="#008a0e"/><path d="M1353.8 1613.8l-4.63-14.27h9.27z" fill="#008a0e"/><path d="M1353.8 1617.03l-6-18.5h12.02zm-3.25-16.5l3.26 10.03 3.27-10.03z" stroke="#008a0e" stroke-width=".05" fill="#008a0e"/><use xlink:href="#g" transform="matrix(1,0,0,1,1338.4996161005238,1540.8512935061287) translate(0 14.222222222222223)"/><path d="M1354.22 1738.5v39.8a.2.2 0 0 1-.2.2.2.2 0 0 0-.2.2v23.92" stroke="#3a414a" fill="none"/><path d="M1354.72 1738.5h-1v-.5h1z" stroke="#3a414a" stroke-width=".05" fill="#3a414a"/><path d="M1353.8 1817.38l-4.63-14.26h9.27z" stroke="#3a414a" fill="#3a414a"/><path d="M1349 1821.1a8 8 0 0 1 9.6 0l70.4 52.8a4.5 4.5 0 0 1 0 7.2l-70.4 52.8a8 8 0 0 1-9.6 0l-70.4-52.8a4.5 4.5 0 0 1 0-7.2z" stroke="#3a414a" fill="#fff"/><use xlink:href="#M" transform="matrix(1,0,0,1,1278.8082580758323,1822.5) translate(20.159320987654322 53.78777777777778)"/><use xlink:href="#N" transform="matrix(1,0,0,1,1278.8082580758323,1822.5) translate(44.1408024691358 80.45444444444445)"/><path d="M815.06 1254.4l1.1.27 1.02.42.94.57.83.7.72.85.57.93.42 1.02.26 1.07.08 1.05.07 709.52.18.73.3.72.4.67.52.6.6.5.66.4.73.3.76.2.82.06 449.8-.06v2l-449.88.06-1.06-.08-1.06-.26-1.02-.42-.94-.57-.83-.72-.72-.83-.57-.94-.42-1-.27-1.12-.07-709.7-.06-.8-.2-.77-.3-.74-.4-.66-.5-.6-.6-.5-.67-.42-.73-.3-.72-.17-61.06-.07v-2zm539.75 715.64l-.07 1.06-.26 1.07-.42 1-.58.95-.7.83-.85.72-.93.57-1.03.42-1.1.27h-42.4v-2h42.16l.72-.18.73-.3.67-.4.6-.52.5-.6.4-.66.3-.72.2-.77.06-.82V1937h2z" stroke="#008a0e" stroke-width=".05" fill="#008a0e"/><path d="M1353.8 1936l1-.06v1.1h-2v-1.1z" fill="#008a0e"/><path d="M1353.8 1935.98l1.03-.07v1.15h-2.05v-1.14zm-.97 1.02h1.95v-1.04l-.97.07-.97-.07z" stroke="#008a0e" stroke-width=".05" fill="#008a0e"/><path d="M752.76 1259.97l-14.27-4.64 14.26-4.63z" fill="#008a0e"/><path d="M753.76 1261.35l-18.5-6.02 18.5-6zm-12.03-6.02l10.03 3.26v-6.53z" stroke="#008a0e" stroke-width=".05" fill="#008a0e"/><use xlink:href="#g" transform="matrix(1,0,0,1,1275.8501939219955,1965.3343497918665) translate(0 14.222222222222223)"/><path d="M1475.23 1872.56l-.26 1.1-.42 1.02-.58.94-.7.83-.85.72-.93.57-1.03.42-1.07.26-1.05.08h-36.04v-2h35.97l.82-.06.75-.2.73-.3.67-.4.6-.5.5-.6.4-.67.3-.73.18-.72.04-82.65h2zm-5.86-196l1.1.28 1.02.42.92.57.84.72.7.83.6.94.4 1.02.27 1.06.08 1.06-.02 84.87h-2l.03-84.8-.06-.8-.18-.77-.3-.73-.4-.67-.52-.6-.6-.5-.66-.4-.73-.3-.72-.2-16.32-.06v-2z" stroke="#e81313" stroke-width=".05" fill="#e81313"/><path d="M1432.34 1878.5h-1.14l.1-1-.08-.92 1.12-.08z" fill="#e81313"/><path d="M1432.36 1878.53h-1.2l.13-1.03-.1-.95 1.16-.08zm-1.1-1.93l.08.9-.1.97h1.07v-1.94z" stroke="#e81313" stroke-width=".05" fill="#e81313"/><path d="M1451.8 1682.14l-14.26-4.64 14.27-4.64z" fill="#e81313"/><path d="M1452.8 1683.5l-18.5-6 18.5-6zm-12.02-6l10.03 3.26v-6.52z" stroke="#e81313" stroke-width=".05" fill="#e81313"/><use xlink:href="#O" transform="matrix(1,0,0,1,1462.5060890774723,1768.3324259125513) translate(0 14.222222222222223)"/><path d="M747.96 1067.5h134.3a6 6 0 0 0 6-6v-208a6 6 0 0 1 6-6h118.4" stroke="#3a414a" fill="none"/><path d="M747.97 1068h-.55l.04-.5-.04-.5h.55z" stroke="#3a414a" stroke-width=".05" fill="#3a414a"/><path d="M1027.43 847.5l-14.27 4.64v-9.28z" stroke="#3a414a" fill="#3a414a"/><path d="M695.2 163.6a8 8 0 0 1 9.6 0l70.4 52.8a4.5 4.5 0 0 1 0 7.2l-70.4 52.8a8 8 0 0 1-9.6 0l-70.4-52.8a4.5 4.5 0 0 1 0-7.2z" stroke="#3a414a" fill="#fff"/><use xlink:href="#P" transform="matrix(1,0,0,1,625,165) translate(38.029691358024685 45.27777777777778)"/><use xlink:href="#Q" transform="matrix(1,0,0,1,625,165) translate(49.727222222222224 71.94444444444446)"/><path d="M542.8 221h-76.76l-.82.06-.76.2-.73.3-.67.4-.6.5-.5.6-.4.67-.3.73-.2.72-.06 1428.78.06.82.2.76.3.73.4.67.5.6.6.5.67.4.73.3.72.2L601 1659v2l-136.06-.07-1.1-.27-1.02-.42-.94-.57-.83-.72-.72-.83-.57-.94-.42-1.02-.26-1.06-.08-1.06.07-1429.1.27-1.1.42-1.02.57-.94.72-.83.83-.72.94-.57 1.02-.42 1.06-.26 1.06-.08h76.84zm78.7 0h-55.1v-2h55.1z" stroke="#e81313" stroke-width=".05" fill="#e81313"/><path d="M622.58 219.08l-.08.92.08.92-1.1.08v-2h1.13z" fill="#e81313"/><path d="M622.6 219.08l-.08.92.1.95-1.17.08v-2.06h1.2zm-1.1-.06v1.95l1.06-.07-.1-.9.1-.93v-.04z" stroke="#e81313" stroke-width=".05" fill="#e81313"/><path d="M616.26 1660l-14.26 4.64v-9.28z" fill="#e81313"/><path d="M619.5 1660l-18.5 6v-12zm-16.5 3.26l10.03-3.26-10.03-3.26z" stroke="#e81313" stroke-width=".05" fill="#e81313"/><use xlink:href="#v" transform="matrix(1,0,0,1,542.8040465820229,209.33333333333334) translate(0 14.222222222222223)"/><path d="M1465.35 1017.56l-.27 1.1-.42 1.02-.58.94-.7.83-.84.72-.94.57-1.02.42-1.07.26-1.04.08h-33.04v-2h32.96l.82-.06.76-.2.73-.3.66-.4.6-.5.5-.6.4-.67.3-.73.2-.72v-20.1h2zm-5.87-176l1.1.28 1.02.42.94.57.83.72.7.83.6.94.4 1.02.27 1.06.08 1.06-.06 127.44h-2l.06-127.36-.07-.82-.18-.76-.3-.73-.4-.67-.52-.6-.6-.5-.66-.4-.74-.3-.72-.2-253.32-.06v-2z" stroke="#e81313" stroke-width=".05" fill="#e81313"/><path d="M1425.44 1023.5h-1.13l.12-1-.1-.92 1.12-.08z" fill="#e81313"/><path d="M1425.47 1023.52h-1.2l.12-1.02-.1-.95 1.17-.08zm-1.1-1.92l.07.9-.1.98h1.08v-1.95z" stroke="#e81313" stroke-width=".05" fill="#e81313"/><path d="M1204.92 847.14l-14.27-4.64 14.27-4.64z" fill="#e81313"/><path d="M1205.92 848.5l-18.5-6 18.5-6zm-12.03-6l10.02 3.26v-6.52z" stroke="#e81313" stroke-width=".05" fill="#e81313"/><use xlink:href="#v" transform="matrix(1,0,0,1,1452.6166261416943,975.8970005493849) translate(0 14.222222222222223)"/><path d="M1452.62 1203.5h-27.2v-2h27.2zm12.73-17.35h-2l.04-188.92h2zm-5.87-344.58l1.1.27 1.02.42.94.57.83.72.7.83.6.94.4 1.02.27 1.06.08 1.06-.03 127.44h-2l.02-127.36-.07-.82-.18-.76-.3-.73-.4-.67-.52-.6-.6-.5-.66-.4-.74-.3-.72-.2-253.32-.06v-2z" stroke="#e81313" stroke-width=".05" fill="#e81313"/><path d="M1425.44 1203.5h-1.13l.12-1-.1-.92 1.12-.08z" fill="#e81313"/><path d="M1425.47 1203.53h-1.2l.12-1.03-.1-.95 1.17-.08zm-1.1-1.93l.07.9-.1.97h1.08v-1.94z" stroke="#e81313" stroke-width=".05" fill="#e81313"/><path d="M1204.92 847.14l-14.27-4.64 14.27-4.64z" fill="#e81313"/><path d="M1205.92 848.5l-18.5-6 18.5-6zm-12.03-6l10.02 3.26v-6.52z" stroke="#e81313" stroke-width=".05" fill="#e81313"/><use xlink:href="#v" transform="matrix(1,0,0,1,1452.6166261416943,1186.1456532017298) translate(0 14.222222222222223)"/><path d="M1472.24 1422.56l-.27 1.1-.42 1.02-.57.94-.72.83-.83.72-.94.57-1.03.42-1.06.26-1.05.08h-33.04v-2h32.97l.82-.06.75-.2.73-.3.67-.4.6-.5.5-.6.4-.67.3-.73.2-.72V1401h2zM815.06 1254.4l1.1.27 1.02.42.94.57.83.7.72.85.57.93.42 1.02.26 1.07.08 1.05.07 81.02.18.72.3.73.4.67.52.6.6.5.66.4.73.3.76.2.82.06 640.33.07 1.1.27 1.02.42.93.57.83.72.72.83.57.94.42 1.02.26 1.06.08 1.06-.02 26.2h-2l.03-26.12-.05-.82-.2-.76-.3-.73-.4-.67-.5-.6-.6-.5-.67-.4-.73-.3-.72-.2-640.17-.06-1.06-.08-1.06-.26-1.02-.42-.94-.57-.83-.72-.72-.83-.57-.94-.42-1.02-.27-1.1-.07-81.2-.06-.8-.2-.77-.3-.74-.4-.66-.5-.6-.6-.5-.67-.42-.73-.3-.72-.17-61.06-.07v-2z" stroke="#e81313" stroke-width=".05" fill="#e81313"/><path d="M1432.34 1428.5h-1.14l.1-1-.08-.92 1.12-.08z" fill="#e81313"/><path d="M1432.36 1428.53h-1.2l.13-1.03-.1-.95 1.16-.08zm-1.1-1.93l.08.9-.1.97h1.07v-1.94z" stroke="#e81313" stroke-width=".05" fill="#e81313"/><path d="M752.76 1259.97l-14.27-4.64 14.26-4.63z" fill="#e81313"/><path d="M753.76 1261.35l-18.5-6.02 18.5-6zm-12.03-6.02l10.03 3.26v-6.53z" stroke="#e81313" stroke-width=".05" fill="#e81313"/><use xlink:href="#v" transform="matrix(1,0,0,1,1459.5079039190364,1379.658548982115) translate(0 14.222222222222223)"/><path d="M863.2 221h-84.7v-2h84.7zm97.83 0h-67.2v-2h67.2z" stroke="#008a0e" stroke-width=".05" fill="#008a0e"/><path d="M778.53 221h-1.14l.1-1-.08-.92 1.1-.08z" fill="#008a0e"/><path d="M778.55 221.03h-1.18l.1-1.03-.08-.95 1.15-.08zm-1.1-1.93l.08.9-.1.97h1.07v-1.94z" stroke="#008a0e" stroke-width=".05" fill="#008a0e"/><path d="M976.3 220l-14.27 4.64v-9.28z" fill="#008a0e"/><path d="M979.54 220l-18.5 6v-12zm-16.5 3.26l10.02-3.26-10.03-3.26z" stroke="#008a0e" stroke-width=".05" fill="#008a0e"/><use xlink:href="#y" transform="matrix(1,0,0,1,863.2107449097224,209.33333333333334) translate(0 14.222222222222223)"/><path d="M980 166a6 6 0 0 1 6-6h148a6 6 0 0 1 6 6v108a6 6 0 0 1-6 6H986a6 6 0 0 1-6-6z" stroke="#3a414a" fill="#fff"/><use xlink:href="#R" transform="matrix(1,0,0,1,992,172) translate(8.617283950617306 53.1111111111111)"/><use xlink:href="#S" transform="matrix(1,0,0,1,992,172) translate(56.76543209876544 53.1111111111111)"/><path d="M1140.96 220h125.15" stroke="#3a414a" fill="none"/><path d="M1140.98 220.5h-.52v-1h.52z" stroke="#3a414a" stroke-width=".05" fill="#3a414a"/><path d="M1280.88 220l-14.27 4.64v-9.28z" stroke="#3a414a" fill="#3a414a"/><path d="M1355.2 163.6a8 8 0 0 1 9.6 0l70.4 52.8a4.5 4.5 0 0 1 0 7.2l-70.4 52.8a8 8 0 0 1-9.6 0l-70.4-52.8a4.5 4.5 0 0 1 0-7.2z" stroke="#3a414a" fill="#fff"/><use xlink:href="#T" transform="matrix(1,0,0,1,1285,165) translate(36.764259259259255 45.27777777777778)"/><use xlink:href="#U" transform="matrix(1,0,0,1,1285,165) translate(97.25808641975308 45.27777777777778)"/><use xlink:href="#V" transform="matrix(1,0,0,1,1285,165) translate(31.2087037037037 71.94444444444446)"/><path d="M1715.2 363.6a8 8 0 0 1 9.6 0l70.4 52.8a4.5 4.5 0 0 1 0 7.2l-70.4 52.8a8 8 0 0 1-9.6 0l-70.4-52.8a4.5 4.5 0 0 1 0-7.2z" stroke="#3a414a" fill="#fff"/><use xlink:href="#T" transform="matrix(1,0,0,1,1645,365) translate(36.75925925925926 46.111111111111114)"/><use xlink:href="#U" transform="matrix(1,0,0,1,1645,365) translate(97.25308641975309 46.111111111111114)"/><use xlink:href="#W" transform="matrix(1,0,0,1,1645,365) translate(8.425925925925924 72.77777777777777)"/><path d="M1721 563h-2v-22.33h2zm0-43.67h-2V479.5h2z" stroke="#008a0e" stroke-width=".05" fill="#008a0e"/><path d="M1720 478.5l1-.06v1.1h-2v-1.1z" fill="#008a0e"/><path d="M1720 478.48l1.03-.07v1.15h-2.06v-1.14zm-.97 1.02h1.94v-1.04l-.97.07-.97-.07z" stroke="#008a0e" stroke-width=".05" fill="#008a0e"/><path d="M1720 578.26l-4.64-14.26h9.28z" fill="#008a0e"/><path d="M1720 581.5l-6-18.5h12zm-3.26-16.5l3.26 10.03 3.26-10.03z" stroke="#008a0e" stroke-width=".05" fill="#008a0e"/><use xlink:href="#y" transform="matrix(1,0,0,1,1704.6913580246915,519.3333333333334) translate(0 14.222222222222223)"/><path d="M1715.2 583.6a8 8 0 0 1 9.6 0l70.4 52.8a4.5 4.5 0 0 1 0 7.2l-70.4 52.8a8 8 0 0 1-9.6 0l-70.4-52.8a4.5 4.5 0 0 1 0-7.2z" stroke="#3a414a" fill="#fff"/><use xlink:href="#X" transform="matrix(1,0,0,1,1645,585) translate(28.92166666666667 46.9375)"/><use xlink:href="#Y" transform="matrix(1,0,0,1,1645,585) translate(33.33833333333334 70.9375)"/><use xlink:href="#Z" transform="matrix(1,0,0,1,1645,585) translate(61.11611111111112 70.9375)"/><path d="M795.06 129.07l1.1.27 1.02.42.94.57.83.72.72.83.57.94.42 1.02.26 1.06.08 1.06.07 608.86.18.72.3.73.4.67.52.6.6.5.66.4.73.3.76.2.82.06 809.28-.07.72-.18.73-.3.66-.4.6-.52.5-.6.42-.66.3-.73.18-.76.07-.82.04-60.55h2l-.04 60.64-.1 1.06-.24 1.06-.42 1.02-.58.94-.7.83-.85.72-.92.57-1.02.42-1.1.27-809.6.07-1.06-.08-1.06-.26-1.02-.42-.94-.57-.83-.72-.72-.83-.57-.94-.42-1.02-.27-1.1-.07-609.02-.06-.82-.2-.76-.3-.73-.4-.67-.5-.6-.6-.5-.67-.4-.73-.3-.72-.2-88.78-.06-.82.06-.76.2-.73.3-.67.4-.6.5-.5.6-.4.67-.3.73-.2.72L701 143h-2l.07-8.06.27-1.1.42-1.02.57-.94.72-.83.83-.72.94-.57 1.02-.42 1.06-.26 1.06-.08zM1641.5 641h-14.96l-.82.06-.77.2-.72.3-.67.4-.6.5-.5.6-.4.67-.3.73-.2.72v16.9h-2v-17.14l.28-1.1.42-1.02.57-.94.72-.83.83-.72.94-.57 1-.42 1.08-.26 1.06-.08h15.04z" stroke="#e81313" stroke-width=".05" fill="#e81313"/><path d="M1642.58 639.08l-.08.92.08.92-1.1.08v-2h1.13z" fill="#e81313"/><path d="M1642.6 639.08l-.08.92.1.95-1.17.08v-2.05h1.2zm-1.1-.06v1.95l1.06-.07-.1-.9.1-.93v-.05z" stroke="#e81313" stroke-width=".05" fill="#e81313"/><path d="M700 158.26L695.36 144h9.28z" fill="#e81313"/><path d="M700 161.5l-6-18.5h12zm-3.26-16.5l3.26 10.03 3.26-10.03z" stroke="#e81313" stroke-width=".05" fill="#e81313"/><use xlink:href="#v" transform="matrix(1,0,0,1,1608.6954158851909,662.0771334614628) translate(0 14.222222222222223)"/><path d="M1321.53 300.93l-398.5.07-.34.03-.32.07-.3.12-.25.16-.24.2-.22.25-.16.26-.12.28-.07.3-.03.4-2-.16.05-.55.14-.6.23-.6.33-.52.4-.48.5-.4.52-.34.58-.24.6-.15.6-.05 398.57-.07zm39.47-6.9l-.08 1.07-.26 1.06-.42 1.02-.57.94-.72.83-.83.72-.94.57-1.02.42-1.1.27h-2.92v-2h2.68l.72-.18.73-.3.67-.4.6-.52.5-.6.4-.66.3-.73.2-.76.06-.82V279.5h2z" stroke="#008a0e" stroke-width=".05" fill="#008a0e"/><path d="M1360 278.5l1-.06v1.1h-2v-1.1z" fill="#008a0e"/><path d="M1360 278.48l1.03-.07v1.15h-2.06v-1.14zm-.97 1.02h1.94v-1.04l-.97.07-.97-.07z" stroke="#008a0e" stroke-width=".05" fill="#008a0e"/><path d="M920 318.26L915.36 304h9.28z" fill="#008a0e"/><path d="M920 321.5l-6-18.5h12zm-3.26-16.5l3.26 10.03 3.26-10.03z" stroke="#008a0e" stroke-width=".05" fill="#008a0e"/><use xlink:href="#y" transform="matrix(1,0,0,1,1321.5262865455427,289.3333333333333) translate(0 14.222222222222223)"/><path d="M1715.1 219.08l1.06.26 1.02.42.94.57.83.72.72.83.57.94.42 1.02.27 1.1L1721 343h-2l-.07-117.82-.18-.72-.3-.73-.4-.67-.52-.6-.6-.5-.66-.4-.73-.3-.76-.2-.82-.06h-237.92v-2h238zM1438.5 221v-2h13.93v2z" stroke="#e81313" stroke-width=".05" fill="#e81313"/><path d="M1438.53 221h-1.14l.1-1-.08-.92 1.1-.08z" fill="#e81313"/><path d="M1438.55 221.03h-1.18l.1-1.03-.08-.95 1.15-.08zm-1.1-1.93l.08.9-.1.97h1.07v-1.94z" stroke="#e81313" stroke-width=".05" fill="#e81313"/><path d="M1720 358.26l-4.64-14.26h9.28z" fill="#e81313"/><path d="M1720 361.5l-6-18.5h12zm-3.26-16.5l3.26 10.03 3.26-10.03z" stroke="#e81313" stroke-width=".05" fill="#e81313"/><use xlink:href="#v" transform="matrix(1,0,0,1,1452.4328029837136,209.33333333333334) translate(0 14.222222222222223)"/><path d="M915.2 323.6a8 8 0 0 1 9.6 0l70.4 52.8a4.5 4.5 0 0 1 0 7.2l-70.4 52.8a8 8 0 0 1-9.6 0l-70.4-52.8a4.5 4.5 0 0 1 0-7.2z" stroke="#3a414a" fill="#fff"/><use xlink:href="#E" transform="matrix(1,0,0,1,845,325) translate(46.6408024691358 45.27777777777778)"/><use xlink:href="#U" transform="matrix(1,0,0,1,845,325) translate(87.38154320987654 45.27777777777778)"/><use xlink:href="#aa" transform="matrix(1,0,0,1,845,325) translate(45.375370370370376 71.94444444444446)"/><path d="M921 483h-2v-2.33h2zm0-23.67h-2V439.5h2z" stroke="#008a0e" stroke-width=".05" fill="#008a0e"/><path d="M920 438.5l1-.06v1.1h-2v-1.1z" fill="#008a0e"/><path d="M920 438.48l1.02-.07v1.15H919v-1.14zm-.98 1.02H921v-1.04l-.98.07-.98-.07z" stroke="#008a0e" stroke-width=".05" fill="#008a0e"/><path d="M920 498.26L915.36 484h9.28z" fill="#008a0e"/><path d="M920 501.5l-6-18.5h12zm-3.26-16.5l3.26 10.03 3.26-10.03z" stroke="#008a0e" stroke-width=".05" fill="#008a0e"/><use xlink:href="#y" transform="matrix(1,0,0,1,904.6913580246913,459.3333333333333) translate(0 14.222222222222223)"/><path d="M1255.2 583.6a8 8 0 0 1 9.6 0l70.4 52.8a4.5 4.5 0 0 1 0 7.2l-70.4 52.8a8 8 0 0 1-9.6 0l-70.4-52.8a4.5 4.5 0 0 1 0-7.2z" stroke="#3a414a" fill="#fff"/><g><use xlink:href="#ab" transform="matrix(1,0,0,1,1185,585) translate(49.07907407407408 31.787777777777777)"/><use xlink:href="#ac" transform="matrix(1,0,0,1,1185,585) translate(19.449444444444445 58.45444444444445)"/><use xlink:href="#ad" transform="matrix(1,0,0,1,1185,585) translate(99.69635802469136 58.45444444444445)"/><use xlink:href="#ae" transform="matrix(1,0,0,1,1185,585) translate(57.782777777777774 85.1211111111111)"/></g><path d="M915.2 503.6a8 8 0 0 1 9.6 0l70.4 52.8a4.5 4.5 0 0 1 0 7.2l-70.4 52.8a8 8 0 0 1-9.6 0l-70.4-52.8a4.5 4.5 0 0 1 0-7.2z" stroke="#3a414a" fill="#fff"/><g><use xlink:href="#af" transform="matrix(1,0,0,1,845,505) translate(39.85067901234568 45.27777777777778)"/><use xlink:href="#U" transform="matrix(1,0,0,1,845,505) translate(94.17166666666665 45.27777777777778)"/><use xlink:href="#ag" transform="matrix(1,0,0,1,845,505) translate(39.88154320987654 71.94444444444446)"/></g><path d="M805.06 120.57l1.1.27 1.02.42.94.57.83.72.72.83.57.94.42 1 .26 1.08.08 1.06.07 525.86.18.73.3.72.4.67.52.6.6.5.66.4.73.3.76.2.82.06 56.6-.04v2l-56.68.04-1.06-.08-1.06-.26-1.02-.42-.94-.57-.83-.72-.72-.83-.57-.94-.42-1-.27-1.12-.07-526.02-.06-.82-.2-.77-.3-.72-.4-.67-.5-.6-.6-.5-.67-.4-.73-.3-.72-.2-98.78-.06-.82.06-.76.2-.73.3-.67.4-.6.5-.5.6-.4.67-.3.72-.2.73L701 143h-2l.07-16.56.27-1.1.42-1.02.57-.94.72-.83.83-.72.94-.57 1.02-.42 1.06-.26 1.06-.08zM921 652.54l-.08 1.06-.26 1.07-.42 1-.57.95-.72.83-.83.72-.94.57-1.02.42-1.1.27h-11.8v-2h11.56l.72-.18.73-.3.67-.4.6-.52.5-.6.4-.66.3-.72.2-.77.06-.82V619.5h2z" stroke="#008a0e" stroke-width=".05" fill="#008a0e"/><path d="M920 618.5l1-.06v1.1h-2v-1.1z" fill="#008a0e"/><path d="M920 618.48l1.02-.07v1.15H919v-1.14zm-.98 1.02H921v-1.04l-.98.07-.98-.07z" stroke="#008a0e" stroke-width=".05" fill="#008a0e"/><path d="M700 158.26L695.36 144h9.28z" fill="#008a0e"/><path d="M700 161.5l-6-18.5h12zm-3.26-16.5l3.26 10.03 3.26-10.03z" stroke="#008a0e" stroke-width=".05" fill="#008a0e"/><g><use xlink:href="#y" transform="matrix(1,0,0,1,872.6432031785653,647.8343497918665) translate(0 14.222222222222223)"/></g><path d="M1257.63 559.05l.6.14.6.23.52.33.48.4.4.5.34.52.24.58.15.6.05.56-2 .16-.03-.4-.07-.3-.12-.3-.16-.25-.2-.24-.25-.22-.26-.16-.28-.12-.3-.07-.36-.03H1151.3v-2h105.74zM998.5 561v-2h129.2v2z" stroke="#e81313" stroke-width=".05" fill="#e81313"/><path d="M998.53 561h-1.14l.1-1-.08-.92 1.1-.08z" fill="#e81313"/><path d="M998.55 561.02h-1.18l.1-1.02-.08-.95 1.15-.08zm-1.1-1.92l.08.9-.1.98h1.07v-1.95z" stroke="#e81313" stroke-width=".05" fill="#e81313"/><path d="M1260 578.26l-4.64-14.26h9.28z" fill="#e81313"/><path d="M1260 581.5l-6-18.5h12zm-3.26-16.5l3.26 10.03 3.26-10.03z" stroke="#e81313" stroke-width=".05" fill="#e81313"/><g><use xlink:href="#v" transform="matrix(1,0,0,1,1127.6980801244342,549.3333333333334) translate(0 14.222222222222223)"/></g><path d="M650 666.1a8 8 0 0 1 9.6 0l70.4 52.8a4.5 4.5 0 0 1 0 7.2l-70.4 52.8a8 8 0 0 1-9.6 0l-70.4-52.8a4.5 4.5 0 0 1 0-7.2z" stroke="#3a414a" fill="#fff"/><g><use xlink:href="#ah" transform="matrix(1,0,0,1,579.7916666666666,667.5) translate(19.511172839506155 55.59027777777778)"/><use xlink:href="#ai" transform="matrix(1,0,0,1,579.7916666666666,667.5) translate(41.67166666666665 55.59027777777778)"/><use xlink:href="#aj" transform="matrix(1,0,0,1,579.7916666666666,667.5) translate(55.900061728395066 82.25694444444446)"/></g><path d="M574.8 848.5a6 6 0 0 1 6-6h148a6 6 0 0 1 6 6v108a6 6 0 0 1-6 6h-148a6 6 0 0 1-6-6z" stroke="#3a414a" fill="#fff"/><g><use xlink:href="#ak" transform="matrix(1,0,0,1,586.7916666666666,854.5) translate(39.5246913580247 41.77777777777778)"/><use xlink:href="#al" transform="matrix(1,0,0,1,586.7916666666666,854.5) translate(66.27160493827161 41.77777777777778)"/><use xlink:href="#am" transform="matrix(1,0,0,1,586.7916666666666,854.5) translate(-1.092592592592581 60.44444444444444)"/></g><path d="M992.84 723.46l-242.04.04v-2l242.04-.04zm268.16-6.92l-.08 1.06-.26 1.06-.42 1.02-.57.94-.72.83-.83.72-.94.57-1.02.42-1.1.27-231.6.03v-2l231.36-.03.72-.18.73-.3.67-.4.6-.52.5-.6.4-.66.3-.73.2-.76.06-.82V699.5h2z" stroke="#008a0e" stroke-width=".05" fill="#008a0e"/><path d="M1260 698.5l1-.06v1.1h-2v-1.1z" fill="#008a0e"/><path d="M1260 698.48l1.03-.07v1.15h-2.06v-1.14zm-.97 1.02h1.94v-1.04l-.97.07-.97-.07z" stroke="#008a0e" stroke-width=".05" fill="#008a0e"/><path d="M749.8 727.14l-14.27-4.64 14.27-4.64z" fill="#008a0e"/><path d="M750.8 728.5l-18.5-6 18.5-6zm-12.03-6l10.03 3.26v-6.52z" stroke="#008a0e" stroke-width=".05" fill="#008a0e"/><g><use xlink:href="#y" transform="matrix(1,0,0,1,992.8377406182615,711.8333333333334) translate(0 14.222222222222223)"/></g><path d="M655.8 823.53h-2v-1.34h2zm0-22.68h-2V782h2z" stroke="#008a0e" stroke-width=".05" fill="#008a0e"/><path d="M654.8 781l1-.06v1.1h-2v-1.1z" fill="#008a0e"/><path d="M654.8 780.98l1.02-.07v1.15h-2.05v-1.14zm-.98 1.02h1.95v-1.04l-.98.07-.98-.07z" stroke="#008a0e" stroke-width=".05" fill="#008a0e"/><path d="M654.8 838.8l-4.64-14.27h9.27z" fill="#008a0e"/><path d="M654.8 842.04l-6.02-18.5h12.02zm-3.27-16.5l3.26 10.02 3.25-10.03z" stroke="#008a0e" stroke-width=".05" fill="#008a0e"/><g><use xlink:href="#y" transform="matrix(1,0,0,1,639.483024691358,800.8522137668035) translate(0 14.222222222222223)"/></g><defs><path fill="#3a414a" d="M175 0L67-191c6 58 2 128 3 191H24v-248h59L193-55c-6-58-2-129-3-193h46V0h-61" id="an"/><path fill="#3a414a" d="M110-194c64 0 96 36 96 99 0 64-35 99-97 99-61 0-95-36-95-99 0-62 34-99 96-99zm-1 164c35 0 45-28 45-65 0-40-10-65-43-65-34 0-45 26-45 65 0 36 10 65 43 65" id="ao"/><g id="a"><use transform="matrix(0.05555555555555554,0,0,0.05555555555555554,0,0)" xlink:href="#an"/><use transform="matrix(0.05555555555555554,0,0,0.05555555555555554,14.388888888888884,0)" xlink:href="#ao"/></g><path fill="#3a414a" d="M197 0v-115H63V0H30v-248h33v105h134v-105h34V0h-34" id="ap"/><path fill="#3a414a" d="M141-36C126-15 110 5 73 4 37 3 15-17 15-53c-1-64 63-63 125-63 3-35-9-54-41-54-24 1-41 7-42 31l-33-3c5-37 33-52 76-52 45 0 72 20 72 64v82c-1 20 7 32 28 27v20c-31 9-61-2-59-35zM48-53c0 20 12 33 32 33 41-3 63-29 60-74-43 2-92-5-92 41" id="aq"/><path fill="#3a414a" d="M135-143c-3-34-86-38-87 0 15 53 115 12 119 90S17 21 10-45l28-5c4 36 97 45 98 0-10-56-113-15-118-90-4-57 82-63 122-42 12 7 21 19 24 35" id="ar"/><g id="b"><use transform="matrix(0.055555555555555504,0,0,0.055555555555555504,0,0)" xlink:href="#ap"/><use transform="matrix(0.055555555555555504,0,0,0.055555555555555504,14.388888888888875,0)" xlink:href="#aq"/><use transform="matrix(0.055555555555555504,0,0,0.055555555555555504,25.499999999999975,0)" xlink:href="#ar"/></g><path fill="#3a414a" d="M85-194c31 0 48 13 60 33l-1-100h32l1 261h-30c-2-10 0-23-3-31C134-8 116 4 85 4 32 4 16-35 15-94c0-66 23-100 70-100zm9 24c-40 0-46 34-46 75 0 40 6 74 45 74 42 0 51-32 51-76 0-42-9-74-50-73" id="as"/><path fill="#3a414a" d="M100-194c62-1 85 37 85 99 1 63-27 99-86 99S16-35 15-95c0-66 28-99 85-99zM99-20c44 1 53-31 53-75 0-43-8-75-51-75s-53 32-53 75 10 74 51 75" id="at"/><path fill="#3a414a" d="M206 0h-36l-40-164L89 0H53L-1-190h32L70-26l43-164h34l41 164 42-164h31" id="au"/><path fill="#3a414a" d="M117-194c89-4 53 116 60 194h-32v-121c0-31-8-49-39-48C34-167 62-67 57 0H25l-1-190h30c1 10-1 24 2 32 11-22 29-35 61-36" id="av"/><path fill="#3a414a" d="M24 0v-261h32V0H24" id="aw"/><g id="c"><use transform="matrix(0.055555555555555504,0,0,0.055555555555555504,0,0)" xlink:href="#as"/><use transform="matrix(0.055555555555555504,0,0,0.055555555555555504,11.1111111111111,0)" xlink:href="#at"/><use transform="matrix(0.055555555555555504,0,0,0.055555555555555504,22.2222222222222,0)" xlink:href="#au"/><use transform="matrix(0.055555555555555504,0,0,0.055555555555555504,36.61111111111107,0)" xlink:href="#av"/><use transform="matrix(0.055555555555555504,0,0,0.055555555555555504,47.72222222222217,0)" xlink:href="#aw"/><use transform="matrix(0.055555555555555504,0,0,0.055555555555555504,52.11111111111106,0)" xlink:href="#at"/><use transform="matrix(0.055555555555555504,0,0,0.055555555555555504,63.222222222222165,0)" xlink:href="#aq"/><use transform="matrix(0.055555555555555504,0,0,0.055555555555555504,74.33333333333326,0)" xlink:href="#as"/></g><path fill="#3a414a" d="M115-194c53 0 69 39 70 98 0 66-23 100-70 100C84 3 66-7 56-30L54 0H23l1-261h32v101c10-23 28-34 59-34zm-8 174c40 0 45-34 45-75 0-40-5-75-45-74-42 0-51 32-51 76 0 43 10 73 51 73" id="ax"/><path fill="#3a414a" d="M141 0L90-78 38 0H4l68-98-65-92h35l48 74 47-74h35l-64 92 68 98h-35" id="ay"/><g id="d"><use transform="matrix(0.055555555555555504,0,0,0.055555555555555504,0,0)" xlink:href="#ax"/><use transform="matrix(0.055555555555555504,0,0,0.055555555555555504,11.1111111111111,0)" xlink:href="#at"/><use transform="matrix(0.055555555555555504,0,0,0.055555555555555504,22.2222222222222,0)" xlink:href="#ay"/></g><path fill="#3a414a" d="M100-194c63 0 86 42 84 106H49c0 40 14 67 53 68 26 1 43-12 49-29l28 8c-11 28-37 45-77 45C44 4 14-33 15-96c1-61 26-98 85-98zm52 81c6-60-76-77-97-28-3 7-6 17-6 28h103" id="az"/><g id="e"><use transform="matrix(0.055555555555555504,0,0,0.055555555555555504,0,0)" xlink:href="#ax"/><use transform="matrix(0.055555555555555504,0,0,0.055555555555555504,11.1111111111111,0)" xlink:href="#az"/><use transform="matrix(0.055555555555555504,0,0,0.055555555555555504,22.2222222222222,0)" xlink:href="#az"/><use transform="matrix(0.055555555555555504,0,0,0.055555555555555504,33.3333333333333,0)" xlink:href="#av"/></g><path fill="#3a414a" d="M106-169C34-169 62-67 57 0H25v-261h32l-1 103c12-21 28-36 61-36 89 0 53 116 60 194h-32v-121c2-32-8-49-39-48" id="aA"/><path fill="#3a414a" d="M103-251c84 0 111 97 45 133-19 10-37 24-39 52H78c0-63 77-55 77-114 0-30-21-42-52-43-32 0-53 17-56 46l-32-2c7-45 34-72 88-72zM77 0v-35h34V0H77" id="aB"/><g id="f"><use transform="matrix(0.055555555555555504,0,0,0.055555555555555504,0,0)" xlink:href="#ar"/><use transform="matrix(0.055555555555555504,0,0,0.055555555555555504,9.999999999999991,0)" xlink:href="#aA"/><use transform="matrix(0.055555555555555504,0,0,0.055555555555555504,21.111111111111093,0)" xlink:href="#at"/><use transform="matrix(0.055555555555555504,0,0,0.055555555555555504,32.22222222222219,0)" xlink:href="#au"/><use transform="matrix(0.055555555555555504,0,0,0.055555555555555504,46.61111111111107,0)" xlink:href="#av"/><use transform="matrix(0.055555555555555504,0,0,0.055555555555555504,57.72222222222217,0)" xlink:href="#aB"/></g><path fill="#333" d="M146-102V0H94v-102L6-248h54l60 105 60-105h54" id="aC"/><path fill="#333" d="M185-48c-13 30-37 53-82 52C43 2 14-33 14-96s30-98 90-98c62 0 83 45 84 108H66c0 31 8 55 39 56 18 0 30-7 34-22zm-45-69c5-46-57-63-70-21-2 6-4 13-4 21h74" id="aD"/><path fill="#333" d="M137-138c1-29-70-34-71-4 15 46 118 7 119 86 1 83-164 76-172 9l43-7c4 19 20 25 44 25 33 8 57-30 24-41C81-84 22-81 20-136c-2-80 154-74 161-7" id="aE"/><g id="g"><use transform="matrix(0.04938271604938272,0,0,0.04938271604938272,0,0)" xlink:href="#aC"/><use transform="matrix(0.04938271604938272,0,0,0.04938271604938272,10.864197530864198,0)" xlink:href="#aD"/><use transform="matrix(0.04938271604938272,0,0,0.04938271604938272,20.74074074074074,0)" xlink:href="#aE"/></g><path fill="#3a414a" d="M185-189c-5-48-123-54-124 2 14 75 158 14 163 119 3 78-121 87-175 55-17-10-28-26-33-46l33-7c5 56 141 63 141-1 0-78-155-14-162-118-5-82 145-84 179-34 5 7 8 16 11 25" id="aF"/><g id="h"><use transform="matrix(0.06172839506172839,0,0,0.06172839506172839,0,0)" xlink:href="#aF"/><use transform="matrix(0.06172839506172839,0,0,0.06172839506172839,14.814814814814813,0)" xlink:href="#aA"/><use transform="matrix(0.06172839506172839,0,0,0.06172839506172839,27.160493827160494,0)" xlink:href="#at"/><use transform="matrix(0.06172839506172839,0,0,0.06172839506172839,39.50617283950617,0)" xlink:href="#au"/></g><g id="i"><use transform="matrix(0.06172839506172839,0,0,0.06172839506172839,0,0)" xlink:href="#as"/><use transform="matrix(0.06172839506172839,0,0,0.06172839506172839,12.345679012345679,0)" xlink:href="#at"/><use transform="matrix(0.06172839506172839,0,0,0.06172839506172839,24.691358024691358,0)" xlink:href="#au"/><use transform="matrix(0.06172839506172839,0,0,0.06172839506172839,40.67901234567901,0)" xlink:href="#av"/><use transform="matrix(0.06172839506172839,0,0,0.06172839506172839,53.02469135802469,0)" xlink:href="#aw"/><use transform="matrix(0.06172839506172839,0,0,0.06172839506172839,57.901234567901234,0)" xlink:href="#at"/><use transform="matrix(0.06172839506172839,0,0,0.06172839506172839,70.24691358024691,0)" xlink:href="#aq"/><use transform="matrix(0.06172839506172839,0,0,0.06172839506172839,82.5925925925926,0)" xlink:href="#as"/></g><g id="j"><use transform="matrix(0.06172839506172839,0,0,0.06172839506172839,0,0)" xlink:href="#ax"/><use transform="matrix(0.06172839506172839,0,0,0.06172839506172839,12.345679012345679,0)" xlink:href="#at"/><use transform="matrix(0.06172839506172839,0,0,0.06172839506172839,24.691358024691358,0)" xlink:href="#ay"/></g><path fill="#3a414a" d="M115-194c55 1 70 41 70 98S169 2 115 4C84 4 66-9 55-30l1 105H24l-1-265h31l2 30c10-21 28-34 59-34zm-8 174c40 0 45-34 45-75s-6-73-45-74c-42 0-51 32-51 76 0 43 10 73 51 73" id="aG"/><path fill="#3a414a" d="M179-190L93 31C79 59 56 82 12 73V49c39 6 53-20 64-50L1-190h34L92-34l54-156h33" id="aH"/><path fill="#3a414a" d="M177-190C167-65 218 103 67 71c-23-6-38-20-44-43l32-5c15 47 100 32 89-28v-30C133-14 115 1 83 1 29 1 15-40 15-95c0-56 16-97 71-98 29-1 48 16 59 35 1-10 0-23 2-32h30zM94-22c36 0 50-32 50-73 0-42-14-75-50-75-39 0-46 34-46 75s6 73 46 73" id="aI"/><path fill="#3a414a" d="M210-169c-67 3-38 105-44 169h-31v-121c0-29-5-50-35-48C34-165 62-65 56 0H25l-1-190h30c1 10-1 24 2 32 10-44 99-50 107 0 11-21 27-35 58-36 85-2 47 119 55 194h-31v-121c0-29-5-49-35-48" id="aJ"/><path fill="#3a414a" d="M33 0v-38h34V0H33" id="aK"/><path fill="#3a414a" d="M24-231v-30h32v30H24zM24 0v-190h32V0H24" id="aL"/><path fill="#3a414a" d="M59-47c-2 24 18 29 38 22v24C64 9 27 4 27-40v-127H5v-23h24l9-43h21v43h35v23H59v120" id="aM"/><path fill="#3a414a" d="M87 75C49 33 22-17 22-94c0-76 28-126 65-167h31c-38 41-64 92-64 168S80 34 118 75H87" id="aN"/><path fill="#3a414a" d="M33-261c38 41 65 92 65 168S71 34 33 75H2C39 34 66-17 66-93S39-220 2-261h31" id="aO"/><g id="k"><use transform="matrix(0.049382716049382706,0,0,0.049382716049382706,0,0)" xlink:href="#aG"/><use transform="matrix(0.049382716049382706,0,0,0.049382716049382706,9.87654320987654,0)" xlink:href="#aH"/><use transform="matrix(0.049382716049382706,0,0,0.049382716049382706,18.76543209876543,0)" xlink:href="#aI"/><use transform="matrix(0.049382716049382706,0,0,0.049382716049382706,28.64197530864197,0)" xlink:href="#aq"/><use transform="matrix(0.049382716049382706,0,0,0.049382716049382706,38.51851851851851,0)" xlink:href="#aJ"/><use transform="matrix(0.049382716049382706,0,0,0.049382716049382706,53.28395061728394,0)" xlink:href="#az"/><use transform="matrix(0.049382716049382706,0,0,0.049382716049382706,63.16049382716048,0)" xlink:href="#aK"/><use transform="matrix(0.049382716049382706,0,0,0.049382716049382706,68.09876543209874,0)" xlink:href="#aL"/><use transform="matrix(0.049382716049382706,0,0,0.049382716049382706,71.99999999999997,0)" xlink:href="#av"/><use transform="matrix(0.049382716049382706,0,0,0.049382716049382706,81.87654320987652,0)" xlink:href="#aL"/><use transform="matrix(0.049382716049382706,0,0,0.049382716049382706,85.77777777777774,0)" xlink:href="#aM"/><use transform="matrix(0.049382716049382706,0,0,0.049382716049382706,90.71604938271601,0)" xlink:href="#aN"/><use transform="matrix(0.049382716049382706,0,0,0.049382716049382706,96.59259259259255,0)" xlink:href="#aO"/></g><g id="l"><use transform="matrix(0.049382716049382706,0,0,0.049382716049382706,0,0)" xlink:href="#aG"/><use transform="matrix(0.049382716049382706,0,0,0.049382716049382706,9.87654320987654,0)" xlink:href="#aH"/><use transform="matrix(0.049382716049382706,0,0,0.049382716049382706,18.76543209876543,0)" xlink:href="#aI"/><use transform="matrix(0.049382716049382706,0,0,0.049382716049382706,28.64197530864197,0)" xlink:href="#aq"/><use transform="matrix(0.049382716049382706,0,0,0.049382716049382706,38.51851851851851,0)" xlink:href="#aJ"/><use transform="matrix(0.049382716049382706,0,0,0.049382716049382706,53.28395061728394,0)" xlink:href="#az"/><use transform="matrix(0.049382716049382706,0,0,0.049382716049382706,63.16049382716048,0)" xlink:href="#aK"/><use transform="matrix(0.049382716049382706,0,0,0.049382716049382706,68.09876543209874,0)" xlink:href="#as"/><use transform="matrix(0.049382716049382706,0,0,0.049382716049382706,77.97530864197529,0)" xlink:href="#aL"/><use transform="matrix(0.049382716049382706,0,0,0.049382716049382706,81.87654320987652,0)" xlink:href="#ar"/><use transform="matrix(0.049382716049382706,0,0,0.049382716049382706,90.7654320987654,0)" xlink:href="#aG"/><use transform="matrix(0.049382716049382706,0,0,0.049382716049382706,100.64197530864195,0)" xlink:href="#aw"/><use transform="matrix(0.049382716049382706,0,0,0.049382716049382706,104.54320987654317,0)" xlink:href="#aq"/><use transform="matrix(0.049382716049382706,0,0,0.049382716049382706,114.4197530864197,0)" xlink:href="#aH"/><use transform="matrix(0.049382716049382706,0,0,0.049382716049382706,121.97530864197529,0)" xlink:href="#aK"/><use transform="matrix(0.049382716049382706,0,0,0.049382716049382706,126.91358024691354,0)" xlink:href="#aL"/><use transform="matrix(0.049382716049382706,0,0,0.049382716049382706,130.81481481481478,0)" xlink:href="#av"/><use transform="matrix(0.049382716049382706,0,0,0.049382716049382706,140.6913580246913,0)" xlink:href="#aL"/><use transform="matrix(0.049382716049382706,0,0,0.049382716049382706,144.59259259259255,0)" xlink:href="#aM"/><use transform="matrix(0.049382716049382706,0,0,0.049382716049382706,149.53086419753083,0)" xlink:href="#aN"/><use transform="matrix(0.049382716049382706,0,0,0.049382716049382706,155.40740740740736,0)" xlink:href="#aO"/></g><path fill="#3a414a" d="M101-234c-31-9-42 10-38 44h38v23H63V0H32v-167H5v-23h27c-7-52 17-82 69-68v24" id="aP"/><g id="m"><use transform="matrix(0.049382716049382706,0,0,0.049382716049382706,0,0)" xlink:href="#aG"/><use transform="matrix(0.049382716049382706,0,0,0.049382716049382706,9.87654320987654,0)" xlink:href="#aH"/><use transform="matrix(0.049382716049382706,0,0,0.049382716049382706,18.76543209876543,0)" xlink:href="#aI"/><use transform="matrix(0.049382716049382706,0,0,0.049382716049382706,28.64197530864197,0)" xlink:href="#aq"/><use transform="matrix(0.049382716049382706,0,0,0.049382716049382706,38.51851851851851,0)" xlink:href="#aJ"/><use transform="matrix(0.049382716049382706,0,0,0.049382716049382706,53.28395061728394,0)" xlink:href="#az"/><use transform="matrix(0.049382716049382706,0,0,0.049382716049382706,63.16049382716048,0)" xlink:href="#aK"/><use transform="matrix(0.049382716049382706,0,0,0.049382716049382706,68.09876543209874,0)" xlink:href="#aP"/><use transform="matrix(0.049382716049382706,0,0,0.049382716049382706,73.03703703703701,0)" xlink:href="#at"/><use transform="matrix(0.049382716049382706,0,0,0.049382716049382706,82.91358024691355,0)" xlink:href="#av"/><use transform="matrix(0.049382716049382706,0,0,0.049382716049382706,92.7901234567901,0)" xlink:href="#aM"/><use transform="matrix(0.049382716049382706,0,0,0.049382716049382706,97.72839506172836,0)" xlink:href="#aK"/><use transform="matrix(0.049382716049382706,0,0,0.049382716049382706,102.66666666666663,0)" xlink:href="#aL"/><use transform="matrix(0.049382716049382706,0,0,0.049382716049382706,106.56790123456786,0)" xlink:href="#av"/><use transform="matrix(0.049382716049382706,0,0,0.049382716049382706,116.4444444444444,0)" xlink:href="#aL"/><use transform="matrix(0.049382716049382706,0,0,0.049382716049382706,120.34567901234563,0)" xlink:href="#aM"/><use transform="matrix(0.049382716049382706,0,0,0.049382716049382706,125.28395061728388,0)" xlink:href="#aN"/><use transform="matrix(0.049382716049382706,0,0,0.049382716049382706,131.16049382716042,0)" xlink:href="#aO"/></g><path fill="#3a414a" d="M114-163C36-179 61-72 57 0H25l-1-190h30c1 12-1 29 2 39 6-27 23-49 58-41v29" id="aQ"/><g id="n"><use transform="matrix(0.049382716049382706,0,0,0.049382716049382706,0,0)" xlink:href="#aG"/><use transform="matrix(0.049382716049382706,0,0,0.049382716049382706,9.87654320987654,0)" xlink:href="#aH"/><use transform="matrix(0.049382716049382706,0,0,0.049382716049382706,18.76543209876543,0)" xlink:href="#aI"/><use transform="matrix(0.049382716049382706,0,0,0.049382716049382706,28.64197530864197,0)" xlink:href="#aq"/><use transform="matrix(0.049382716049382706,0,0,0.049382716049382706,38.51851851851851,0)" xlink:href="#aJ"/><use transform="matrix(0.049382716049382706,0,0,0.049382716049382706,53.28395061728394,0)" xlink:href="#az"/><use transform="matrix(0.049382716049382706,0,0,0.049382716049382706,63.16049382716048,0)" xlink:href="#aK"/><use transform="matrix(0.049382716049382706,0,0,0.049382716049382706,68.09876543209874,0)" xlink:href="#aJ"/><use transform="matrix(0.049382716049382706,0,0,0.049382716049382706,82.86419753086417,0)" xlink:href="#aL"/><use transform="matrix(0.049382716049382706,0,0,0.049382716049382706,86.7654320987654,0)" xlink:href="#ay"/><use transform="matrix(0.049382716049382706,0,0,0.049382716049382706,95.65432098765429,0)" xlink:href="#az"/><use transform="matrix(0.049382716049382706,0,0,0.049382716049382706,105.53086419753082,0)" xlink:href="#aQ"/><use transform="matrix(0.049382716049382706,0,0,0.049382716049382706,110.4197530864197,0)" xlink:href="#aK"/><use transform="matrix(0.049382716049382706,0,0,0.049382716049382706,115.35802469135798,0)" xlink:href="#aL"/><use transform="matrix(0.049382716049382706,0,0,0.049382716049382706,119.25925925925921,0)" xlink:href="#av"/><use transform="matrix(0.049382716049382706,0,0,0.049382716049382706,129.13580246913574,0)" xlink:href="#aL"/><use transform="matrix(0.049382716049382706,0,0,0.049382716049382706,133.03703703703698,0)" xlink:href="#aM"/><use transform="matrix(0.049382716049382706,0,0,0.049382716049382706,137.97530864197526,0)" xlink:href="#aN"/><use transform="matrix(0.049382716049382706,0,0,0.049382716049382706,143.8518518518518,0)" xlink:href="#aO"/></g><path fill="#3a414a" d="M160-131c35 5 61 23 61 61C221 17 115-2 30 0v-248c76 3 177-17 177 60 0 33-19 50-47 57zm-97-11c50-1 110 9 110-42 0-47-63-36-110-37v79zm0 115c55-2 124 14 124-45 0-56-70-42-124-44v89" id="aR"/><g id="o"><use transform="matrix(0.06172839506172839,0,0,0.06172839506172839,0,0)" xlink:href="#aR"/><use transform="matrix(0.06172839506172839,0,0,0.06172839506172839,14.814814814814813,0)" xlink:href="#az"/><use transform="matrix(0.06172839506172839,0,0,0.06172839506172839,27.160493827160494,0)" xlink:href="#aI"/><use transform="matrix(0.06172839506172839,0,0,0.06172839506172839,39.50617283950617,0)" xlink:href="#aL"/><use transform="matrix(0.06172839506172839,0,0,0.06172839506172839,44.382716049382715,0)" xlink:href="#av"/></g><g id="p"><use transform="matrix(0.06172839506172839,0,0,0.06172839506172839,0,0)" xlink:href="#aI"/><use transform="matrix(0.06172839506172839,0,0,0.06172839506172839,12.345679012345679,0)" xlink:href="#az"/><use transform="matrix(0.06172839506172839,0,0,0.06172839506172839,24.691358024691358,0)" xlink:href="#aM"/></g><g id="q"><use transform="matrix(0.06172839506172839,0,0,0.06172839506172839,0,0)" xlink:href="#as"/><use transform="matrix(0.06172839506172839,0,0,0.06172839506172839,12.345679012345679,0)" xlink:href="#aq"/><use transform="matrix(0.06172839506172839,0,0,0.06172839506172839,24.691358024691358,0)" xlink:href="#aM"/><use transform="matrix(0.06172839506172839,0,0,0.06172839506172839,30.864197530864196,0)" xlink:href="#aq"/></g><path fill="#3a414a" d="M234-2c-28 10-62 0-77-18C117 19 8 12 13-65c3-43 29-61 60-76-25-40-17-114 47-108 35 3 59 15 59 50 0 44-40 53-71 69 14 26 32 50 51 72 14-21 24-43 30-72l26 8c-9 33-21 57-38 82 13 13 33 22 57 15v23zM97-151c25-10 52-18 56-48-1-18-13-29-33-29-42 0-39 50-23 77zM42-66c-3 51 71 58 98 28-20-24-41-51-56-80-23 10-40 24-42 52" id="aS"/><use transform="matrix(0.06172839506172839,0,0,0.06172839506172839,0,0)" xlink:href="#aS" id="r"/><g id="s"><use transform="matrix(0.06172839506172839,0,0,0.06172839506172839,0,0)" xlink:href="#ar"/><use transform="matrix(0.06172839506172839,0,0,0.06172839506172839,11.11111111111111,0)" xlink:href="#at"/><use transform="matrix(0.06172839506172839,0,0,0.06172839506172839,23.45679012345679,0)" xlink:href="#av"/><use transform="matrix(0.06172839506172839,0,0,0.06172839506172839,35.80246913580247,0)" xlink:href="#aI"/><use transform="matrix(0.06172839506172839,0,0,0.06172839506172839,48.148148148148145,0)" xlink:href="#ar"/></g><path fill="#3a414a" d="M84 4C-5 8 30-112 23-190h32v120c0 31 7 50 39 49 72-2 45-101 50-169h31l1 190h-30c-1-10 1-25-2-33-11 22-28 36-60 37" id="aT"/><g id="t"><use transform="matrix(0.055555555555555546,0,0,0.055555555555555546,0,0)" xlink:href="#aJ"/><use transform="matrix(0.055555555555555546,0,0,0.055555555555555546,16.611111111111107,0)" xlink:href="#at"/><use transform="matrix(0.055555555555555546,0,0,0.055555555555555546,27.722222222222214,0)" xlink:href="#aT"/><use transform="matrix(0.055555555555555546,0,0,0.055555555555555546,38.83333333333332,0)" xlink:href="#ar"/><use transform="matrix(0.055555555555555546,0,0,0.055555555555555546,48.83333333333332,0)" xlink:href="#az"/></g><path fill="#3a414a" d="M96-169c-40 0-48 33-48 73s9 75 48 75c24 0 41-14 43-38l32 2c-6 37-31 61-74 61-59 0-76-41-82-99-10-93 101-131 147-64 4 7 5 14 7 22l-32 3c-4-21-16-35-41-35" id="aU"/><path fill="#3a414a" d="M143 0L79-87 56-68V0H24v-261h32v163l83-92h37l-77 82L181 0h-38" id="aV"/><g id="u"><use transform="matrix(0.055555555555555546,0,0,0.055555555555555546,0,0)" xlink:href="#aU"/><use transform="matrix(0.055555555555555546,0,0,0.055555555555555546,9.999999999999998,0)" xlink:href="#aw"/><use transform="matrix(0.055555555555555546,0,0,0.055555555555555546,14.388888888888886,0)" xlink:href="#aL"/><use transform="matrix(0.055555555555555546,0,0,0.055555555555555546,18.777777777777775,0)" xlink:href="#aU"/><use transform="matrix(0.055555555555555546,0,0,0.055555555555555546,28.77777777777777,0)" xlink:href="#aV"/></g><path fill="#333" d="M175 0L67-191c6 58 2 128 3 191H24v-248h59L193-55c-6-58-2-129-3-193h46V0h-61" id="aW"/><path fill="#333" d="M110-194c64 0 96 36 96 99 0 64-35 99-97 99-61 0-95-36-95-99 0-62 34-99 96-99zm-1 164c35 0 45-28 45-65 0-40-10-65-43-65-34 0-45 26-45 65 0 36 10 65 43 65" id="aX"/><g id="v"><use transform="matrix(0.04938271604938272,0,0,0.04938271604938272,0,0)" xlink:href="#aW"/><use transform="matrix(0.04938271604938272,0,0,0.04938271604938272,12.790123456790125,0)" xlink:href="#aX"/></g><g id="w"><use transform="matrix(0.06172839506172839,0,0,0.06172839506172839,0,0)" xlink:href="#at"/><use transform="matrix(0.06172839506172839,0,0,0.06172839506172839,12.345679012345679,0)" xlink:href="#av"/></g><g id="x"><use transform="matrix(0.06172839506172839,0,0,0.06172839506172839,0,0)" xlink:href="#ax"/><use transform="matrix(0.06172839506172839,0,0,0.06172839506172839,12.345679012345679,0)" xlink:href="#aT"/><use transform="matrix(0.06172839506172839,0,0,0.06172839506172839,24.691358024691358,0)" xlink:href="#aM"/><use transform="matrix(0.06172839506172839,0,0,0.06172839506172839,30.864197530864196,0)" xlink:href="#aM"/><use transform="matrix(0.06172839506172839,0,0,0.06172839506172839,37.03703703703704,0)" xlink:href="#at"/><use transform="matrix(0.06172839506172839,0,0,0.06172839506172839,49.382716049382715,0)" xlink:href="#av"/></g><g id="y"><use transform="matrix(0.04938271604938272,0,0,0.04938271604938272,0,0)" xlink:href="#aC"/><use transform="matrix(0.04938271604938272,0,0,0.04938271604938272,10.864197530864198,0)" xlink:href="#aD"/><use transform="matrix(0.04938271604938272,0,0,0.04938271604938272,20.74074074074074,0)" xlink:href="#aE"/></g><path fill="#3a414a" d="M30 0v-248h187v28H63v79h144v27H63v87h162V0H30" id="aY"/><g id="z"><use transform="matrix(0.06172839506172839,0,0,0.06172839506172839,0,0)" xlink:href="#aY"/><use transform="matrix(0.06172839506172839,0,0,0.06172839506172839,14.814814814814813,0)" xlink:href="#av"/><use transform="matrix(0.06172839506172839,0,0,0.06172839506172839,27.160493827160494,0)" xlink:href="#as"/></g><path fill="#3a414a" d="M145-31C134-9 116 4 85 4 32 4 16-35 15-94c0-59 17-99 70-100 32-1 48 14 60 33 0-11-1-24 2-32h30l-1 268h-32zM93-21c41 0 51-33 51-76s-8-73-50-73c-40 0-46 35-46 75s5 74 45 74" id="aZ"/><g id="A"><use transform="matrix(0.06172839506172839,0,0,0.06172839506172839,0,0)" xlink:href="#aZ"/><use transform="matrix(0.06172839506172839,0,0,0.06172839506172839,12.345679012345679,0)" xlink:href="#aT"/><use transform="matrix(0.06172839506172839,0,0,0.06172839506172839,24.691358024691358,0)" xlink:href="#aL"/><use transform="matrix(0.06172839506172839,0,0,0.06172839506172839,29.5679012345679,0)" xlink:href="#aM"/></g><g id="B"><use transform="matrix(0.06172839506172839,0,0,0.06172839506172839,0,0)" xlink:href="#aU"/><use transform="matrix(0.06172839506172839,0,0,0.06172839506172839,11.11111111111111,0)" xlink:href="#aw"/><use transform="matrix(0.06172839506172839,0,0,0.06172839506172839,15.987654320987653,0)" xlink:href="#at"/><use transform="matrix(0.06172839506172839,0,0,0.06172839506172839,28.333333333333332,0)" xlink:href="#ar"/><use transform="matrix(0.06172839506172839,0,0,0.06172839506172839,39.44444444444444,0)" xlink:href="#az"/></g><g id="C"><use transform="matrix(0.06172839506172839,0,0,0.06172839506172839,0,0)" xlink:href="#aG"/><use transform="matrix(0.06172839506172839,0,0,0.06172839506172839,12.345679012345679,0)" xlink:href="#at"/><use transform="matrix(0.06172839506172839,0,0,0.06172839506172839,24.691358024691358,0)" xlink:href="#aG"/><use transform="matrix(0.06172839506172839,0,0,0.06172839506172839,37.03703703703704,0)" xlink:href="#aT"/><use transform="matrix(0.06172839506172839,0,0,0.06172839506172839,49.382716049382715,0)" xlink:href="#aG"/></g><g id="D"><use transform="matrix(0.06172839506172839,0,0,0.06172839506172839,0,0)" xlink:href="#au"/><use transform="matrix(0.06172839506172839,0,0,0.06172839506172839,15.987654320987653,0)" xlink:href="#aL"/><use transform="matrix(0.06172839506172839,0,0,0.06172839506172839,20.864197530864196,0)" xlink:href="#av"/><use transform="matrix(0.06172839506172839,0,0,0.06172839506172839,33.20987654320987,0)" xlink:href="#as"/><use transform="matrix(0.06172839506172839,0,0,0.06172839506172839,45.55555555555555,0)" xlink:href="#at"/><use transform="matrix(0.06172839506172839,0,0,0.06172839506172839,57.90123456790123,0)" xlink:href="#au"/><use transform="matrix(0.06172839506172839,0,0,0.06172839506172839,73.88888888888889,0)" xlink:href="#ar"/></g><g id="E"><use transform="matrix(0.06172839506172839,0,0,0.06172839506172839,0,0)" xlink:href="#aV"/><use transform="matrix(0.06172839506172839,0,0,0.06172839506172839,11.11111111111111,0)" xlink:href="#az"/><use transform="matrix(0.06172839506172839,0,0,0.06172839506172839,23.45679012345679,0)" xlink:href="#aH"/></g><g id="F"><use transform="matrix(0.06172839506172839,0,0,0.06172839506172839,0,0)" xlink:href="#aG"/><use transform="matrix(0.06172839506172839,0,0,0.06172839506172839,12.345679012345679,0)" xlink:href="#aQ"/><use transform="matrix(0.06172839506172839,0,0,0.06172839506172839,19.691358024691358,0)" xlink:href="#az"/><use transform="matrix(0.06172839506172839,0,0,0.06172839506172839,32.03703703703704,0)" xlink:href="#ar"/><use transform="matrix(0.06172839506172839,0,0,0.06172839506172839,43.14814814814815,0)" xlink:href="#ar"/><use transform="matrix(0.06172839506172839,0,0,0.06172839506172839,54.25925925925927,0)" xlink:href="#az"/><use transform="matrix(0.06172839506172839,0,0,0.06172839506172839,66.60493827160495,0)" xlink:href="#as"/></g><g id="G"><use transform="matrix(0.06172839506172839,0,0,0.06172839506172839,0,0)" xlink:href="#az"/><use transform="matrix(0.06172839506172839,0,0,0.06172839506172839,12.345679012345679,0)" xlink:href="#ar"/><use transform="matrix(0.06172839506172839,0,0,0.06172839506172839,23.45679012345679,0)" xlink:href="#aU"/><use transform="matrix(0.06172839506172839,0,0,0.06172839506172839,34.5679012345679,0)" xlink:href="#aq"/><use transform="matrix(0.06172839506172839,0,0,0.06172839506172839,46.913580246913575,0)" xlink:href="#aG"/><use transform="matrix(0.06172839506172839,0,0,0.06172839506172839,59.25925925925925,0)" xlink:href="#az"/></g><path fill="#3a414a" d="M240 0l2-218c-23 76-54 145-80 218h-23L58-218 59 0H30v-248h44l77 211c21-75 51-140 76-211h43V0h-30" id="ba"/><g id="H"><use transform="matrix(0.06172839506172839,0,0,0.06172839506172839,0,0)" xlink:href="#ba"/><use transform="matrix(0.06172839506172839,0,0,0.06172839506172839,18.456790123456788,0)" xlink:href="#at"/><use transform="matrix(0.06172839506172839,0,0,0.06172839506172839,30.80246913580247,0)" xlink:href="#aT"/><use transform="matrix(0.06172839506172839,0,0,0.06172839506172839,43.148148148148145,0)" xlink:href="#ar"/><use transform="matrix(0.06172839506172839,0,0,0.06172839506172839,54.25925925925925,0)" xlink:href="#az"/></g><g id="I"><use transform="matrix(0.06172839506172839,0,0,0.06172839506172839,0,0)" xlink:href="#aU"/><use transform="matrix(0.06172839506172839,0,0,0.06172839506172839,11.11111111111111,0)" xlink:href="#aw"/><use transform="matrix(0.06172839506172839,0,0,0.06172839506172839,15.987654320987653,0)" xlink:href="#aL"/><use transform="matrix(0.06172839506172839,0,0,0.06172839506172839,20.864197530864196,0)" xlink:href="#aU"/><use transform="matrix(0.06172839506172839,0,0,0.06172839506172839,31.975308641975307,0)" xlink:href="#aL"/><use transform="matrix(0.06172839506172839,0,0,0.06172839506172839,36.85185185185185,0)" xlink:href="#aV"/><use transform="matrix(0.06172839506172839,0,0,0.06172839506172839,47.96296296296296,0)" xlink:href="#aL"/><use transform="matrix(0.06172839506172839,0,0,0.06172839506172839,52.839506172839506,0)" xlink:href="#av"/><use transform="matrix(0.06172839506172839,0,0,0.06172839506172839,65.18518518518519,0)" xlink:href="#aI"/></g><g id="J"><use transform="matrix(0.06172839506172839,0,0,0.06172839506172839,0,0)" xlink:href="#aH"/><use transform="matrix(0.06172839506172839,0,0,0.06172839506172839,11.11111111111111,0)" xlink:href="#az"/><use transform="matrix(0.06172839506172839,0,0,0.06172839506172839,23.45679012345679,0)" xlink:href="#ar"/></g><path fill="#3a414a" d="M143 4C61 4 22-44 18-125c-5-107 100-154 193-111 17 8 29 25 37 43l-32 9c-13-25-37-40-76-40-61 0-88 39-88 99 0 61 29 100 91 101 35 0 62-11 79-27v-45h-74v-28h105v86C228-13 192 4 143 4" id="bb"/><g id="K"><use transform="matrix(0.06172839506172839,0,0,0.06172839506172839,0,0)" xlink:href="#bb"/><use transform="matrix(0.06172839506172839,0,0,0.06172839506172839,17.28395061728395,0)" xlink:href="#at"/><use transform="matrix(0.06172839506172839,0,0,0.06172839506172839,29.629629629629626,0)" xlink:href="#aM"/><use transform="matrix(0.06172839506172839,0,0,0.06172839506172839,35.80246913580247,0)" xlink:href="#at"/></g><g id="L"><use transform="matrix(0.06172839506172839,0,0,0.06172839506172839,0,0)" xlink:href="#as"/><use transform="matrix(0.06172839506172839,0,0,0.06172839506172839,12.345679012345679,0)" xlink:href="#at"/><use transform="matrix(0.06172839506172839,0,0,0.06172839506172839,24.691358024691358,0)" xlink:href="#au"/><use transform="matrix(0.06172839506172839,0,0,0.06172839506172839,40.67901234567901,0)" xlink:href="#av"/><use transform="matrix(0.06172839506172839,0,0,0.06172839506172839,53.02469135802469,0)" xlink:href="#aw"/><use transform="matrix(0.06172839506172839,0,0,0.06172839506172839,57.901234567901234,0)" xlink:href="#at"/><use transform="matrix(0.06172839506172839,0,0,0.06172839506172839,70.24691358024691,0)" xlink:href="#aq"/><use transform="matrix(0.06172839506172839,0,0,0.06172839506172839,82.5925925925926,0)" xlink:href="#as"/></g><path fill="#3a414a" d="M30-248c118-7 216 8 213 122C240-48 200 0 122 0H30v-248zM63-27c89 8 146-16 146-99s-60-101-146-95v194" id="bc"/><g id="M"><use transform="matrix(0.06172839506172839,0,0,0.06172839506172839,0,0)" xlink:href="#bc"/><use transform="matrix(0.06172839506172839,0,0,0.06172839506172839,15.987654320987653,0)" xlink:href="#at"/><use transform="matrix(0.06172839506172839,0,0,0.06172839506172839,28.333333333333332,0)" xlink:href="#au"/><use transform="matrix(0.06172839506172839,0,0,0.06172839506172839,44.32098765432099,0)" xlink:href="#av"/><use transform="matrix(0.06172839506172839,0,0,0.06172839506172839,56.666666666666664,0)" xlink:href="#aw"/><use transform="matrix(0.06172839506172839,0,0,0.06172839506172839,61.54320987654321,0)" xlink:href="#at"/><use transform="matrix(0.06172839506172839,0,0,0.06172839506172839,73.88888888888889,0)" xlink:href="#aq"/><use transform="matrix(0.06172839506172839,0,0,0.06172839506172839,86.23456790123457,0)" xlink:href="#as"/><use transform="matrix(0.06172839506172839,0,0,0.06172839506172839,98.58024691358025,0)" xlink:href="#ar"/></g><g id="N"><use transform="matrix(0.06172839506172839,0,0,0.06172839506172839,0,0)" xlink:href="#as"/><use transform="matrix(0.06172839506172839,0,0,0.06172839506172839,12.345679012345679,0)" xlink:href="#at"/><use transform="matrix(0.06172839506172839,0,0,0.06172839506172839,24.691358024691358,0)" xlink:href="#av"/><use transform="matrix(0.06172839506172839,0,0,0.06172839506172839,37.03703703703704,0)" xlink:href="#az"/><use transform="matrix(0.06172839506172839,0,0,0.06172839506172839,49.382716049382715,0)" xlink:href="#aB"/></g><g id="O"><use transform="matrix(0.04938271604938272,0,0,0.04938271604938272,0,0)" xlink:href="#aW"/><use transform="matrix(0.04938271604938272,0,0,0.04938271604938272,12.790123456790125,0)" xlink:href="#aX"/></g><g id="P"><use transform="matrix(0.06172839506172839,0,0,0.06172839506172839,0,0)" xlink:href="#aQ"/><use transform="matrix(0.06172839506172839,0,0,0.06172839506172839,7.345679012345679,0)" xlink:href="#aT"/><use transform="matrix(0.06172839506172839,0,0,0.06172839506172839,19.691358024691358,0)" xlink:href="#av"/><use transform="matrix(0.06172839506172839,0,0,0.06172839506172839,32.03703703703704,0)" xlink:href="#av"/><use transform="matrix(0.06172839506172839,0,0,0.06172839506172839,44.382716049382715,0)" xlink:href="#aL"/><use transform="matrix(0.06172839506172839,0,0,0.06172839506172839,49.25925925925926,0)" xlink:href="#av"/><use transform="matrix(0.06172839506172839,0,0,0.06172839506172839,61.60493827160494,0)" xlink:href="#aI"/></g><g id="Q"><use transform="matrix(0.06172839506172839,0,0,0.06172839506172839,0,0)" xlink:href="#aM"/><use transform="matrix(0.06172839506172839,0,0,0.06172839506172839,6.172839506172839,0)" xlink:href="#aQ"/><use transform="matrix(0.06172839506172839,0,0,0.06172839506172839,13.518518518518519,0)" xlink:href="#aT"/><use transform="matrix(0.06172839506172839,0,0,0.06172839506172839,25.864197530864196,0)" xlink:href="#az"/><use transform="matrix(0.06172839506172839,0,0,0.06172839506172839,38.20987654320987,0)" xlink:href="#aB"/></g><g id="R"><use transform="matrix(0.08024691358024688,0,0,0.08024691358024688,0,0)" xlink:href="#aI"/><use transform="matrix(0.08024691358024688,0,0,0.08024691358024688,16.049382716049376,0)" xlink:href="#az"/><use transform="matrix(0.08024691358024688,0,0,0.08024691358024688,32.09876543209875,0)" xlink:href="#aM"/></g><path fill="#3a414a" d="M108 0H70L1-190h34L89-25l56-165h34" id="bd"/><g id="S"><use transform="matrix(0.08024691358024688,0,0,0.08024691358024688,0,0)" xlink:href="#az"/><use transform="matrix(0.08024691358024688,0,0,0.08024691358024688,16.049382716049376,0)" xlink:href="#bd"/><use transform="matrix(0.08024691358024688,0,0,0.08024691358024688,30.493827160493815,0)" xlink:href="#az"/><use transform="matrix(0.08024691358024688,0,0,0.08024691358024688,46.543209876543195,0)" xlink:href="#av"/><use transform="matrix(0.08024691358024688,0,0,0.08024691358024688,62.59259259259257,0)" xlink:href="#aM"/></g><g id="T"><use transform="matrix(0.06172839506172839,0,0,0.06172839506172839,0,0)" xlink:href="#az"/><use transform="matrix(0.06172839506172839,0,0,0.06172839506172839,12.345679012345679,0)" xlink:href="#bd"/><use transform="matrix(0.06172839506172839,0,0,0.06172839506172839,23.45679012345679,0)" xlink:href="#az"/><use transform="matrix(0.06172839506172839,0,0,0.06172839506172839,35.80246913580247,0)" xlink:href="#av"/><use transform="matrix(0.06172839506172839,0,0,0.06172839506172839,48.148148148148145,0)" xlink:href="#aM"/></g><g id="U"><use transform="matrix(0.06172839506172839,0,0,0.06172839506172839,0,0)" xlink:href="#aL"/><use transform="matrix(0.06172839506172839,0,0,0.06172839506172839,4.876543209876543,0)" xlink:href="#ar"/></g><g id="V"><use transform="matrix(0.06172839506172839,0,0,0.06172839506172839,0,0)" xlink:href="#aV"/><use transform="matrix(0.06172839506172839,0,0,0.06172839506172839,11.11111111111111,0)" xlink:href="#az"/><use transform="matrix(0.06172839506172839,0,0,0.06172839506172839,23.45679012345679,0)" xlink:href="#aH"/><use transform="matrix(0.06172839506172839,0,0,0.06172839506172839,34.5679012345679,0)" xlink:href="#as"/><use transform="matrix(0.06172839506172839,0,0,0.06172839506172839,46.913580246913575,0)" xlink:href="#at"/><use transform="matrix(0.06172839506172839,0,0,0.06172839506172839,59.25925925925925,0)" xlink:href="#au"/><use transform="matrix(0.06172839506172839,0,0,0.06172839506172839,75.24691358024691,0)" xlink:href="#av"/></g><g id="W"><use transform="matrix(0.06172839506172839,0,0,0.06172839506172839,0,0)" xlink:href="#aJ"/><use transform="matrix(0.06172839506172839,0,0,0.06172839506172839,18.456790123456788,0)" xlink:href="#at"/><use transform="matrix(0.06172839506172839,0,0,0.06172839506172839,30.80246913580247,0)" xlink:href="#aT"/><use transform="matrix(0.06172839506172839,0,0,0.06172839506172839,43.148148148148145,0)" xlink:href="#ar"/><use transform="matrix(0.06172839506172839,0,0,0.06172839506172839,54.25925925925925,0)" xlink:href="#az"/><use transform="matrix(0.06172839506172839,0,0,0.06172839506172839,66.60493827160494,0)" xlink:href="#aJ"/><use transform="matrix(0.06172839506172839,0,0,0.06172839506172839,85.06172839506172,0)" xlink:href="#at"/><use transform="matrix(0.06172839506172839,0,0,0.06172839506172839,97.4074074074074,0)" xlink:href="#aM"/><use transform="matrix(0.06172839506172839,0,0,0.06172839506172839,103.58024691358024,0)" xlink:href="#aL"/><use transform="matrix(0.06172839506172839,0,0,0.06172839506172839,108.45679012345678,0)" xlink:href="#at"/><use transform="matrix(0.06172839506172839,0,0,0.06172839506172839,120.80246913580247,0)" xlink:href="#av"/></g><g id="X"><use transform="matrix(0.055555555555555546,0,0,0.055555555555555546,0,0)" xlink:href="#aJ"/><use transform="matrix(0.055555555555555546,0,0,0.055555555555555546,16.611111111111107,0)" xlink:href="#at"/><use transform="matrix(0.055555555555555546,0,0,0.055555555555555546,27.722222222222214,0)" xlink:href="#aT"/><use transform="matrix(0.055555555555555546,0,0,0.055555555555555546,38.83333333333332,0)" xlink:href="#ar"/><use transform="matrix(0.055555555555555546,0,0,0.055555555555555546,48.83333333333332,0)" xlink:href="#az"/><use transform="matrix(0.055555555555555546,0,0,0.055555555555555546,59.944444444444436,0)" xlink:href="#aG"/><use transform="matrix(0.055555555555555546,0,0,0.055555555555555546,71.05555555555554,0)" xlink:href="#at"/><use transform="matrix(0.055555555555555546,0,0,0.055555555555555546,82.16666666666666,0)" xlink:href="#ar"/></g><g id="Y"><use transform="matrix(0.055555555555555546,0,0,0.055555555555555546,0,0)" xlink:href="#at"/><use transform="matrix(0.055555555555555546,0,0,0.055555555555555546,11.111111111111109,0)" xlink:href="#av"/></g><g id="Z"><use transform="matrix(0.055555555555555546,0,0,0.055555555555555546,0,0)" xlink:href="#ax"/><use transform="matrix(0.055555555555555546,0,0,0.055555555555555546,11.111111111111109,0)" xlink:href="#aT"/><use transform="matrix(0.055555555555555546,0,0,0.055555555555555546,22.222222222222218,0)" xlink:href="#aM"/><use transform="matrix(0.055555555555555546,0,0,0.055555555555555546,27.77777777777777,0)" xlink:href="#aM"/><use transform="matrix(0.055555555555555546,0,0,0.055555555555555546,33.33333333333333,0)" xlink:href="#at"/><use transform="matrix(0.055555555555555546,0,0,0.055555555555555546,44.444444444444436,0)" xlink:href="#av"/></g><g id="aa"><use transform="matrix(0.06172839506172839,0,0,0.06172839506172839,0,0)" xlink:href="#ar"/><use transform="matrix(0.06172839506172839,0,0,0.06172839506172839,11.11111111111111,0)" xlink:href="#aG"/><use transform="matrix(0.06172839506172839,0,0,0.06172839506172839,23.45679012345679,0)" xlink:href="#aq"/><use transform="matrix(0.06172839506172839,0,0,0.06172839506172839,35.80246913580247,0)" xlink:href="#aU"/><use transform="matrix(0.06172839506172839,0,0,0.06172839506172839,46.91358024691358,0)" xlink:href="#az"/></g><g id="ab"><use transform="matrix(0.06172839506172839,0,0,0.06172839506172839,0,0)" xlink:href="#aF"/><use transform="matrix(0.06172839506172839,0,0,0.06172839506172839,14.814814814814813,0)" xlink:href="#at"/><use transform="matrix(0.06172839506172839,0,0,0.06172839506172839,27.160493827160494,0)" xlink:href="#av"/><use transform="matrix(0.06172839506172839,0,0,0.06172839506172839,39.50617283950617,0)" xlink:href="#aI"/></g><g id="ac"><use transform="matrix(0.06172839506172839,0,0,0.06172839506172839,0,0)" xlink:href="#aZ"/><use transform="matrix(0.06172839506172839,0,0,0.06172839506172839,12.345679012345679,0)" xlink:href="#aT"/><use transform="matrix(0.06172839506172839,0,0,0.06172839506172839,24.691358024691358,0)" xlink:href="#az"/><use transform="matrix(0.06172839506172839,0,0,0.06172839506172839,37.03703703703704,0)" xlink:href="#aT"/><use transform="matrix(0.06172839506172839,0,0,0.06172839506172839,49.382716049382715,0)" xlink:href="#az"/><use transform="matrix(0.06172839506172839,0,0,0.06172839506172839,61.72839506172839,0)" xlink:href="#as"/></g><g id="ad"><use transform="matrix(0.06172839506172839,0,0,0.06172839506172839,0,0)" xlink:href="#av"/><use transform="matrix(0.06172839506172839,0,0,0.06172839506172839,12.345679012345679,0)" xlink:href="#at"/><use transform="matrix(0.06172839506172839,0,0,0.06172839506172839,24.691358024691358,0)" xlink:href="#aM"/></g><g id="ae"><use transform="matrix(0.06172839506172839,0,0,0.06172839506172839,0,0)" xlink:href="#av"/><use transform="matrix(0.06172839506172839,0,0,0.06172839506172839,12.345679012345679,0)" xlink:href="#aT"/><use transform="matrix(0.06172839506172839,0,0,0.06172839506172839,24.691358024691358,0)" xlink:href="#aw"/><use transform="matrix(0.06172839506172839,0,0,0.06172839506172839,29.5679012345679,0)" xlink:href="#aw"/></g><g id="af"><use transform="matrix(0.06172839506172839,0,0,0.06172839506172839,0,0)" xlink:href="#ar"/><use transform="matrix(0.06172839506172839,0,0,0.06172839506172839,11.11111111111111,0)" xlink:href="#at"/><use transform="matrix(0.06172839506172839,0,0,0.06172839506172839,23.45679012345679,0)" xlink:href="#av"/><use transform="matrix(0.06172839506172839,0,0,0.06172839506172839,35.80246913580247,0)" xlink:href="#aI"/></g><g id="ag"><use transform="matrix(0.06172839506172839,0,0,0.06172839506172839,0,0)" xlink:href="#aG"/><use transform="matrix(0.06172839506172839,0,0,0.06172839506172839,12.345679012345679,0)" xlink:href="#aw"/><use transform="matrix(0.06172839506172839,0,0,0.06172839506172839,17.22222222222222,0)" xlink:href="#aq"/><use transform="matrix(0.06172839506172839,0,0,0.06172839506172839,29.5679012345679,0)" xlink:href="#aH"/><use transform="matrix(0.06172839506172839,0,0,0.06172839506172839,40.67901234567901,0)" xlink:href="#aL"/><use transform="matrix(0.06172839506172839,0,0,0.06172839506172839,45.55555555555556,0)" xlink:href="#av"/><use transform="matrix(0.06172839506172839,0,0,0.06172839506172839,57.901234567901234,0)" xlink:href="#aI"/></g><g id="ah"><use transform="matrix(0.06172839506172839,0,0,0.06172839506172839,0,0)" xlink:href="#aL"/><use transform="matrix(0.06172839506172839,0,0,0.06172839506172839,4.876543209876543,0)" xlink:href="#ar"/></g><g id="ai"><use transform="matrix(0.06172839506172839,0,0,0.06172839506172839,0,0)" xlink:href="#aG"/><use transform="matrix(0.06172839506172839,0,0,0.06172839506172839,12.345679012345679,0)" xlink:href="#aw"/><use transform="matrix(0.06172839506172839,0,0,0.06172839506172839,17.22222222222222,0)" xlink:href="#aq"/><use transform="matrix(0.06172839506172839,0,0,0.06172839506172839,29.5679012345679,0)" xlink:href="#aH"/><use transform="matrix(0.06172839506172839,0,0,0.06172839506172839,40.67901234567901,0)" xlink:href="#ar"/><use transform="matrix(0.06172839506172839,0,0,0.06172839506172839,51.79012345679013,0)" xlink:href="#at"/><use transform="matrix(0.06172839506172839,0,0,0.06172839506172839,64.13580246913581,0)" xlink:href="#av"/><use transform="matrix(0.06172839506172839,0,0,0.06172839506172839,76.4814814814815,0)" xlink:href="#aI"/></g><g id="aj"><use transform="matrix(0.06172839506172839,0,0,0.06172839506172839,0,0)" xlink:href="#aM"/><use transform="matrix(0.06172839506172839,0,0,0.06172839506172839,6.172839506172839,0)" xlink:href="#aQ"/><use transform="matrix(0.06172839506172839,0,0,0.06172839506172839,13.518518518518519,0)" xlink:href="#aT"/><use transform="matrix(0.06172839506172839,0,0,0.06172839506172839,25.864197530864196,0)" xlink:href="#az"/></g><g id="ak"><use transform="matrix(0.04320987654320987,0,0,0.04320987654320987,0,0)" xlink:href="#aQ"/><use transform="matrix(0.04320987654320987,0,0,0.04320987654320987,5.141975308641975,0)" xlink:href="#aT"/><use transform="matrix(0.04320987654320987,0,0,0.04320987654320987,13.783950617283947,0)" xlink:href="#av"/></g><path fill="#3a414a" d="M30-248c87 1 191-15 191 75 0 78-77 80-158 76V0H30v-248zm33 125c57 0 124 11 124-50 0-59-68-47-124-48v98" id="be"/><g id="al"><use transform="matrix(0.04320987654320987,0,0,0.04320987654320987,0,0)" xlink:href="#be"/><use transform="matrix(0.04320987654320987,0,0,0.04320987654320987,10.370370370370368,0)" xlink:href="#aw"/><use transform="matrix(0.04320987654320987,0,0,0.04320987654320987,13.783950617283947,0)" xlink:href="#aq"/><use transform="matrix(0.04320987654320987,0,0,0.04320987654320987,22.42592592592592,0)" xlink:href="#aH"/></g><path fill="#3a414a" d="M-5 72V49h209v23H-5" id="bf"/><g id="am"><use transform="matrix(0.04320987654320987,0,0,0.04320987654320987,0,0)" xlink:href="#ar"/><use transform="matrix(0.04320987654320987,0,0,0.04320987654320987,7.777777777777776,0)" xlink:href="#at"/><use transform="matrix(0.04320987654320987,0,0,0.04320987654320987,16.41975308641975,0)" xlink:href="#av"/><use transform="matrix(0.04320987654320987,0,0,0.04320987654320987,25.061728395061724,0)" xlink:href="#aI"/><use transform="matrix(0.04320987654320987,0,0,0.04320987654320987,33.703703703703695,0)" xlink:href="#aN"/><use transform="matrix(0.04320987654320987,0,0,0.04320987654320987,38.84567901234567,0)" xlink:href="#ar"/><use transform="matrix(0.04320987654320987,0,0,0.04320987654320987,46.62345679012345,0)" xlink:href="#at"/><use transform="matrix(0.04320987654320987,0,0,0.04320987654320987,55.26543209876542,0)" xlink:href="#av"/><use transform="matrix(0.04320987654320987,0,0,0.04320987654320987,63.90740740740739,0)" xlink:href="#aI"/><use transform="matrix(0.04320987654320987,0,0,0.04320987654320987,72.54938271604937,0)" xlink:href="#bf"/><use transform="matrix(0.04320987654320987,0,0,0.04320987654320987,81.19135802469134,0)" xlink:href="#aZ"/><use transform="matrix(0.04320987654320987,0,0,0.04320987654320987,89.83333333333331,0)" xlink:href="#aT"/><use transform="matrix(0.04320987654320987,0,0,0.04320987654320987,98.47530864197529,0)" xlink:href="#az"/><use transform="matrix(0.04320987654320987,0,0,0.04320987654320987,107.11728395061726,0)" xlink:href="#aT"/><use transform="matrix(0.04320987654320987,0,0,0.04320987654320987,115.75925925925924,0)" xlink:href="#az"/><use transform="matrix(0.04320987654320987,0,0,0.04320987654320987,124.40123456790121,0)" xlink:href="#as"/><use transform="matrix(0.04320987654320987,0,0,0.04320987654320987,133.0432098765432,0)" xlink:href="#aO"/></g></defs></g></svg>